<?xml version="1.0" standalone="no"?>
<!DOCTYPE svg PUBLIC "-//W3C//DTD SVG 20010904//EN"
 "http://www.w3.org/TR/2001/REC-SVG-20010904/DTD/svg10.dtd">
<svg version="1.0" xmlns="http://www.w3.org/2000/svg"
 width="1024.000000pt" height="1024.000000pt" viewBox="0 0 1024.000000 1024.000000"
 preserveAspectRatio="xMidYMid meet">
<metadata>
Created by potrace 1.14, written by Peter Selinger 2001-2017
</metadata>
<g transform="translate(0.000000,1024.000000) scale(0.100000,-0.100000)"
fill="#000000" stroke="none">
<path d="M5200 7732 c-14 -2 -28 -9 -32 -16 -6 -8 -8 -8 -8 2 0 6 -5 12 -11
12 -5 0 -7 -4 -4 -10 3 -5 1 -10 -4 -10 -6 0 -11 5 -11 11 0 8 -6 7 -17 -2
-11 -10 -14 -10 -9 -1 5 8 1 12 -13 12 -10 0 -22 -6 -24 -12 -4 -10 -6 -10 -6
0 -1 8 -17 12 -48 12 -35 0 -44 -3 -33 -10 9 -6 10 -10 3 -10 -6 0 -15 5 -18
10 -3 6 -15 10 -26 10 -11 0 -17 -4 -14 -10 3 -5 1 -10 -4 -10 -6 0 -11 5 -11
10 0 6 -7 10 -16 10 -8 0 -13 -4 -10 -8 3 -5 -1 -9 -9 -9 -8 0 -12 4 -9 8 4 7
-91 4 -161 -6 -11 -1 -26 -3 -33 -4 -8 0 -10 -6 -6 -13 6 -10 5 -10 -7 -1 -19
15 -113 -3 -102 -20 5 -9 2 -8 -8 0 -12 10 -24 10 -55 1 -52 -15 -51 -15 -76
-18 -13 -1 -17 -4 -10 -7 6 -2 12 -9 12 -14 0 -11 -22 -7 -33 6 -6 6 -10 6
-14 -2 -2 -7 -12 -13 -21 -13 -15 0 -15 -2 -2 -10 13 -8 13 -10 -2 -10 -9 0
-18 5 -20 11 -6 18 -48 -8 -49 -29 0 -16 -1 -16 -7 0 -6 16 -10 16 -34 4 -15
-8 -30 -11 -34 -8 -4 4 -4 -1 -1 -10 3 -10 1 -20 -5 -24 -6 -4 -8 -3 -4 4 9
16 -10 24 -31 13 -10 -5 -27 -12 -38 -16 -15 -5 -17 -8 -6 -15 9 -5 1 -8 -24
-7 -22 1 -40 -4 -43 -11 -2 -7 -10 -12 -18 -12 -9 0 -12 -4 -9 -10 3 -5 0 -7
-9 -4 -25 9 -39 -5 -24 -24 12 -15 11 -16 -4 -4 -15 12 -22 11 -48 -2 -16 -9
-44 -23 -60 -32 -17 -8 -28 -20 -25 -25 4 -5 -2 -6 -11 -2 -13 5 -15 3 -9 -7
6 -9 4 -11 -4 -6 -7 5 -21 0 -33 -11 -11 -10 -23 -17 -27 -17 -9 2 -56 -37
-54 -44 1 -4 -1 -9 -4 -12 -4 -3 -3 1 1 8 4 6 3 12 -2 12 -14 0 -33 -26 -25
-34 4 -4 0 -4 -10 0 -11 4 -19 0 -23 -10 -3 -9 -11 -16 -18 -16 -6 0 -18 -9
-26 -20 -8 -11 -20 -20 -27 -20 -12 0 -17 -13 -14 -33 1 -5 -3 -6 -8 -3 -13 8
-34 -21 -25 -35 4 -7 3 -9 -3 -6 -6 4 -19 -3 -29 -15 -13 -15 -14 -19 -4 -14
8 4 6 0 -5 -9 -11 -9 -19 -21 -17 -26 1 -5 -2 -9 -6 -9 -14 0 -73 -92 -68
-106 3 -9 0 -11 -11 -7 -13 5 -15 2 -11 -15 4 -16 2 -19 -10 -15 -10 4 -13 2
-8 -5 4 -7 2 -12 -3 -12 -6 0 -11 -11 -11 -24 0 -14 -4 -28 -10 -31 -5 -3 -15
-15 -20 -25 -9 -17 -8 -19 7 -13 12 4 9 -1 -7 -15 -14 -12 -22 -21 -17 -22 4
0 1 -13 -8 -30 -18 -35 -19 -43 -2 -35 6 4 4 0 -7 -9 -11 -9 -16 -22 -12 -31
3 -9 2 -13 -4 -10 -9 6 -15 -28 -12 -68 1 -10 -2 -16 -7 -12 -10 6 -11 0 -14
-77 -1 -27 -6 -48 -10 -48 -11 0 -5 -51 8 -69 7 -11 7 -13 -2 -8 -7 5 -12 1
-12 -10 0 -50 -11 -177 -15 -181 -3 -2 -1 -14 5 -25 7 -12 7 -17 1 -13 -12 7
-10 -73 2 -93 6 -10 5 -12 -2 -7 -7 4 -12 1 -13 -6 0 -7 -2 -25 -4 -41 -3 -19
0 -25 8 -21 8 5 8 3 0 -7 -7 -7 -13 -22 -13 -34 0 -12 6 -27 13 -34 9 -11 9
-13 0 -7 -8 4 -13 1 -13 -8 0 -9 6 -16 13 -16 9 0 9 -2 -1 -9 -8 -4 -15 -29
-18 -55 -2 -26 0 -45 5 -42 9 6 8 -31 -2 -40 -12 -12 -8 -26 6 -18 9 6 9 5 0
-8 -7 -8 -10 -18 -6 -21 3 -4 1 -7 -4 -7 -13 0 -12 -18 1 -39 6 -10 5 -12 -2
-7 -7 4 -12 2 -12 -3 0 -6 5 -11 11 -11 8 0 8 -4 0 -13 -8 -10 -7 -17 2 -27 7
-8 8 -11 1 -7 -7 4 -13 -4 -16 -23 -3 -16 0 -32 6 -34 6 -2 5 -5 -3 -5 -11 -1
-11 -4 0 -18 9 -11 10 -14 2 -9 -9 5 -12 -1 -9 -23 2 -17 -1 -31 -5 -31 -14 0
-11 -28 4 -33 9 -4 8 -6 -2 -6 -11 -1 -11 -4 0 -18 10 -11 10 -14 2 -9 -7 4
-13 3 -13 -1 0 -5 6 -15 13 -22 10 -11 9 -12 -2 -6 -11 6 -13 4 -8 -7 7 -19
-20 -61 -34 -53 -5 4 -9 1 -9 -5 0 -7 -7 -10 -15 -6 -8 3 -15 1 -15 -3 0 -5
-10 -7 -22 -3 -17 4 -20 2 -15 -11 7 -18 -8 -24 -18 -7 -4 6 -16 3 -33 -8 -20
-13 -24 -14 -17 -2 7 12 6 13 -7 3 -8 -7 -18 -10 -21 -6 -4 3 -7 -2 -7 -13 0
-16 -2 -17 -10 -4 -9 14 -14 7 -11 -13 1 -5 -3 -6 -8 -2 -6 3 -19 -3 -30 -14
-11 -11 -22 -17 -24 -14 -3 2 -10 -5 -17 -16 -6 -12 -15 -19 -20 -16 -16 10
-85 -37 -72 -49 3 -4 -1 -4 -11 0 -12 4 -17 1 -17 -10 0 -10 -6 -13 -15 -10
-10 4 -15 0 -15 -11 0 -9 -4 -14 -9 -10 -5 3 -12 -4 -16 -15 -3 -11 -11 -20
-16 -20 -5 0 -9 -7 -9 -16 0 -8 -4 -13 -9 -10 -12 8 -61 -104 -65 -151 -3 -21
-5 -38 -6 -38 -1 0 -3 -8 -5 -17 -2 -10 0 -18 5 -18 4 0 8 -21 8 -47 1 -26 6
-49 12 -51 5 -2 8 -8 5 -12 -3 -5 1 -25 9 -44 8 -19 12 -37 8 -40 -3 -3 0 -6
7 -6 7 0 10 -4 7 -9 -7 -11 4 -42 13 -37 3 2 6 -10 5 -27 0 -18 3 -36 7 -42 4
-5 6 -54 5 -108 0 -56 3 -99 9 -101 6 -3 4 -5 -4 -5 -11 -1 -11 -4 -1 -16 9
-11 9 -15 1 -15 -7 0 -9 -5 -6 -11 4 -5 9 -29 11 -52 7 -60 12 -85 19 -97 3
-5 -1 -10 -9 -10 -9 0 -16 -8 -16 -17 0 -9 -3 -13 -7 -10 -3 4 -13 1 -22 -7
-9 -8 -23 -16 -31 -18 -8 -2 -21 -11 -29 -21 -7 -10 -20 -16 -28 -13 -8 3 -11
2 -8 -4 7 -12 65 -6 94 9 21 12 22 11 19 -15 -2 -22 -13 -33 -53 -52 -27 -14
-53 -29 -56 -34 -3 -6 -9 -9 -13 -9 -3 1 -37 -13 -74 -30 -37 -17 -82 -38
-100 -46 -20 -8 -30 -18 -26 -25 4 -6 3 -8 -4 -5 -14 9 -43 -3 -36 -14 3 -5
-3 -6 -12 -2 -13 5 -15 3 -9 -7 5 -8 4 -11 -3 -7 -15 10 -43 -3 -35 -16 3 -6
1 -7 -6 -3 -12 8 -101 -42 -101 -56 0 -5 -7 -8 -15 -8 -8 0 -15 -4 -15 -10 0
-5 -6 -10 -13 -10 -18 0 -49 -35 -40 -44 4 -4 0 -4 -9 -1 -12 5 -34 -11 -74
-52 -32 -32 -54 -52 -50 -45 9 15 5 15 -31 1 -15 -7 -35 -13 -43 -14 -31 -4
-60 -17 -60 -27 0 -6 -6 -6 -15 2 -8 7 -15 8 -15 3 0 -5 -14 -10 -31 -11 -17
-1 -40 -7 -50 -12 -10 -6 -22 -10 -26 -9 -21 4 -34 -2 -27 -12 5 -8 1 -8 -13
0 -11 6 -23 7 -27 4 -7 -8 -26 -12 -74 -16 -19 -2 -38 -10 -43 -18 -7 -11 -9
-12 -9 0 0 11 -3 11 -17 0 -9 -8 -18 -13 -20 -11 -10 7 -33 1 -28 -8 3 -5 1
-10 -5 -10 -7 0 -10 -6 -7 -14 3 -8 -1 -13 -11 -12 -9 0 -16 -5 -15 -11 2 -7
-2 -13 -7 -13 -29 0 -235 -214 -235 -243 0 -7 -7 -12 -15 -12 -8 -1 -14 -7
-12 -14 1 -7 -2 -10 -8 -6 -5 3 -13 -2 -17 -12 -4 -10 -18 -28 -32 -41 -19
-16 -21 -21 -7 -16 16 6 17 4 7 -14 -6 -12 -10 -27 -9 -34 2 -7 -1 -12 -7 -11
-5 0 -11 -22 -13 -50 -2 -48 -16 -72 -34 -61 -4 3 -8 0 -8 -6 0 -7 8 -9 20 -5
21 7 29 -10 8 -18 -10 -3 -10 -8 1 -18 9 -9 11 -9 7 -2 -5 9 1 12 18 11 15 -1
26 -6 26 -10 0 -4 5 -8 11 -8 6 0 9 6 6 13 -3 8 1 14 9 14 8 0 14 -6 14 -14 0
-7 5 -13 11 -13 5 0 8 4 5 8 -3 5 1 9 9 9 8 0 15 -4 15 -9 0 -4 5 -8 11 -8 6
0 8 7 5 16 -5 13 -4 14 7 6 8 -7 17 -8 22 -4 4 4 4 -4 0 -18 l-8 -25 22 25
c13 14 20 20 17 14 -3 -6 3 -19 14 -29 16 -15 18 -21 8 -34 -10 -12 -8 -12 8
2 11 9 24 14 29 10 4 -5 5 -2 0 6 -6 11 -3 13 13 9 12 -4 20 -2 16 3 -3 5 0 9
5 9 22 0 26 2 45 18 13 11 17 12 11 3 -6 -11 -4 -13 9 -8 10 4 15 3 11 -3 -3
-6 -1 -10 4 -10 6 0 11 6 11 13 0 9 2 9 9 -1 4 -8 11 -13 15 -13 19 3 23 -1
21 -22 -2 -15 2 -24 11 -24 11 0 11 4 2 14 -9 11 -7 18 6 31 17 16 17 16 14
-3 -2 -11 2 -20 7 -20 6 0 17 -4 25 -10 12 -7 13 -6 3 7 -7 8 -9 19 -5 23 4 5
1 5 -5 1 -7 -4 -13 -2 -13 3 0 17 18 13 29 -6 6 -10 11 -12 11 -5 0 6 4 12 10
12 5 0 9 -5 7 -11 -1 -6 6 -13 16 -14 9 -2 15 1 11 6 -3 5 -11 6 -17 3 -7 -4
-7 -1 1 7 11 12 15 11 28 -5 10 -14 14 -16 14 -5 0 12 2 12 10 -1 8 -13 10
-12 10 4 0 12 -5 16 -15 12 -8 -3 -15 -1 -15 4 0 16 40 11 46 -5 4 -8 10 -12
15 -9 5 3 9 0 9 -5 0 -6 5 -11 12 -11 6 0 1 12 -13 26 l-24 27 25 -13 c29 -16
30 -16 42 2 8 10 9 10 5 -2 -2 -8 -11 -14 -18 -12 -9 2 -7 -4 5 -17 23 -25 34
-28 15 -4 -12 15 -12 16 3 10 11 -4 15 -2 12 7 -3 7 2 13 11 13 9 0 14 -6 11
-12 -4 -13 29 -14 41 -1 5 4 3 6 -2 4 -6 -2 -11 0 -13 5 -2 6 2 9 11 6 21 -6
37 -5 37 4 0 5 3 7 7 3 4 -4 -3 -16 -17 -27 -21 -17 -22 -19 -3 -10 28 14 36
14 27 -1 -6 -10 -4 -10 7 -1 15 15 33 18 25 5 -3 -5 1 -9 9 -9 11 0 12 4 4 14
-9 9 -8 13 0 13 7 0 9 5 5 13 -5 8 -2 8 9 -2 15 -12 21 -9 18 11 0 4 7 4 16 1
11 -4 13 -8 5 -11 -7 -2 -9 -8 -6 -13 3 -6 11 -5 20 2 16 13 19 -2 3 -18 -8
-8 -8 -13 0 -18 6 -3 11 -3 10 2 -4 20 2 24 18 12 15 -13 15 -12 4 9 -12 23
-12 24 19 17 26 -6 31 -4 25 6 -6 11 -5 11 5 2 9 -8 19 -9 31 -2 15 8 17 6 12
-7 -5 -15 -3 -15 21 1 21 14 25 15 21 3 -7 -18 21 -32 31 -16 5 7 2 8 -6 3 -9
-5 -11 -4 -6 4 5 7 12 9 19 3 7 -5 37 -10 67 -11 56 -3 71 -12 65 -41 -2 -9 3
-17 11 -17 8 0 10 5 6 11 -5 6 -8 18 -7 26 0 8 -6 20 -14 26 -11 9 -11 11 3
11 9 0 16 -4 16 -8 0 -9 26 -6 36 4 4 4 13 2 20 -4 8 -6 21 -8 30 -5 13 5 15
1 12 -19 -3 -13 -1 -22 3 -19 5 3 9 13 9 22 0 13 2 14 9 3 7 -11 9 -11 14 0 4
10 6 10 6 -2 1 -9 8 -20 17 -23 14 -5 15 -4 5 8 -8 9 -8 16 -2 20 5 4 12 -3
16 -14 3 -11 11 -20 16 -20 13 0 11 18 -3 23 -10 4 -10 7 0 18 11 12 13 12 10
-1 -2 -8 5 -14 17 -14 19 0 35 -13 35 -29 0 -5 -4 -6 -9 -2 -5 3 -12 1 -15 -4
-4 -5 2 -8 11 -6 10 1 27 -5 37 -14 17 -13 17 -11 -2 13 -25 33 -31 65 -8 44
8 -7 11 -17 8 -22 -3 -5 1 -5 9 0 19 11 69 12 62 1 -3 -5 4 -6 17 -2 14 5 20
3 16 -3 -8 -14 37 -2 46 12 5 7 8 7 8 -2 0 -7 4 -11 9 -7 5 3 12 1 16 -5 3 -5
11 -10 16 -10 6 0 7 5 3 11 -5 8 -1 8 14 0 27 -14 35 -14 26 1 -5 7 -3 8 7 2
19 -11 59 -13 59 -2 0 4 5 8 11 8 7 0 4 -11 -6 -27 -18 -27 -18 -28 1 -11 10
9 23 17 27 16 5 0 12 4 15 8 4 4 0 3 -8 -1 -12 -7 -13 -6 -3 7 7 8 9 19 5 23
-4 5 -1 5 6 1 7 -4 10 -11 8 -15 -3 -4 -1 -13 5 -21 6 -10 9 -11 9 -2 0 6 5
12 11 12 5 0 8 -4 5 -9 -3 -5 2 -15 12 -22 15 -13 16 -12 4 3 -10 12 -10 18
-1 23 6 4 15 1 20 -6 4 -7 11 -10 15 -6 4 3 1 13 -5 21 -8 10 -9 16 -1 21 6 4
9 1 8 -7 -2 -8 5 -12 20 -11 12 2 22 -2 22 -8 0 -5 -4 -8 -9 -4 -5 3 -12 1
-15 -3 -6 -11 34 -9 52 1 12 8 16 2 13 -17 -1 -5 5 -4 13 4 19 15 21 24 4 14
-7 -4 -8 -3 -4 5 6 9 11 9 21 1 8 -7 24 -9 36 -5 16 6 20 4 13 -6 -6 -11 -5
-12 7 -3 8 6 21 12 29 12 8 1 30 3 48 5 18 2 32 -1 32 -7 0 -6 5 -4 10 4 6 10
10 11 10 3 0 -7 5 -13 11 -13 6 0 8 7 5 16 -5 14 -4 15 9 4 12 -10 13 -16 3
-29 -12 -14 -11 -14 4 -2 10 7 15 17 12 22 -3 5 0 9 6 9 6 0 8 5 4 12 -4 7 -3
8 5 4 6 -4 8 -13 4 -19 -4 -8 -1 -7 9 1 14 11 18 10 27 -6 6 -11 7 -23 3 -27
-4 -5 -1 -5 6 -1 9 5 9 12 1 28 -8 15 -8 23 1 32 6 6 11 7 10 1 -6 -27 0 -36
14 -23 8 7 11 17 8 22 -3 5 0 6 7 2 8 -5 9 -12 2 -19 -7 -9 -3 -12 14 -12 17
0 21 3 14 12 -7 8 -5 10 10 6 12 -3 19 -9 16 -12 -2 -4 2 -8 9 -8 8 0 12 6 9
13 -2 6 1 15 8 20 8 5 10 3 4 -6 -6 -10 -4 -12 8 -7 9 3 19 1 23 -5 4 -7 9 -6
14 3 5 7 16 14 24 15 9 1 14 -2 10 -7 -3 -5 -10 -6 -16 -3 -6 4 -8 2 -5 -3 8
-12 57 -5 57 9 0 5 6 3 14 -4 8 -7 12 -16 10 -19 -2 -3 3 -6 11 -6 8 0 12 3
10 7 -2 3 5 12 17 19 11 7 18 8 15 4 -3 -5 13 -9 36 -10 53 0 68 -4 87 -23 8
-9 11 -11 7 -4 -4 7 -3 15 3 19 5 3 10 2 10 -4 0 -6 8 -7 18 -4 15 6 16 5 2
-13 -8 -10 -10 -16 -5 -11 4 4 18 -1 29 -10 21 -18 21 -18 3 3 -17 20 -17 22
0 35 14 12 16 12 8 0 -6 -11 -4 -13 11 -7 32 13 75 13 70 1 -6 -16 29 -12 50
6 11 9 15 9 10 2 -9 -16 6 -17 22 -1 7 7 12 8 12 2 0 -5 -5 -15 -11 -21 -8 -8
-7 -13 2 -18 7 -5 10 -4 6 2 -8 12 24 40 46 40 13 0 16 -6 11 -21 -4 -15 -3
-17 4 -7 5 7 15 11 20 7 6 -4 20 -1 31 6 15 9 23 9 34 -1 12 -9 17 -9 23 0 5
8 3 10 -7 4 -8 -5 -10 -4 -6 0 10 12 38 15 31 4 -8 -13 40 -11 54 3 16 16 16
-4 0 -22 -11 -12 -10 -12 3 -2 12 9 19 9 29 -1 12 -10 12 -9 1 6 -8 10 -9 17
-3 17 6 0 16 -8 21 -17 6 -10 11 -13 11 -7 0 19 40 25 40 6 0 -13 2 -14 9 -4
10 17 41 12 61 -8 8 -9 12 -11 9 -5 -4 5 -1 15 6 22 10 10 14 9 19 -2 3 -8 10
-15 16 -15 6 0 9 4 6 9 -4 5 1 8 10 7 8 -1 20 -9 25 -17 6 -10 9 -8 9 11 0 19
3 21 9 11 5 -8 7 -19 5 -26 -3 -6 2 -12 10 -12 8 0 12 6 9 13 -2 6 1 15 8 20
8 5 10 3 4 -7 -6 -11 -5 -11 5 -2 30 28 63 -61 36 -97 -10 -13 -9 -13 6 -1 12
9 16 22 13 39 -2 14 1 33 8 41 8 10 8 12 1 8 -7 -4 -17 0 -24 8 -9 11 -9 15
-1 16 14 2 30 6 34 9 7 6 154 4 150 -2 -6 -11 5 -10 27 2 15 8 20 6 25 -9 3
-11 14 -19 25 -18 11 1 17 3 15 5 -2 2 2 10 8 17 10 10 15 9 25 -6 7 -11 10
-25 7 -32 -4 -6 0 -4 8 5 11 14 16 15 27 5 11 -9 11 -8 0 6 -13 17 -12 19 10
15 16 -2 24 -9 22 -18 -2 -8 -1 -13 1 -10 3 3 6 10 7 15 1 6 7 17 13 25 10 13
10 13 -4 2 -14 -10 -18 -10 -22 1 -4 10 2 13 19 11 13 -1 24 2 24 7 0 5 5 9
11 9 5 0 8 -4 5 -8 -3 -5 1 -9 9 -9 11 0 12 5 3 21 -10 18 -9 19 4 9 12 -11
14 -9 14 9 -1 19 4 21 41 21 29 0 49 -7 60 -20 10 -10 14 -13 9 -6 -5 8 -6 17
-2 20 4 4 11 1 15 -6 7 -11 9 -11 14 0 4 11 8 10 19 -5 12 -15 17 -16 23 -6 5
9 4 11 -3 6 -7 -4 -12 -3 -12 3 0 5 9 9 20 8 12 -1 18 -7 16 -14 -3 -7 -1 -13
4 -13 6 0 10 8 10 17 0 15 2 14 16 -3 15 -19 16 -19 9 1 -6 18 -5 18 15 -2 23
-25 40 -32 21 -9 -9 11 -9 16 0 22 7 4 15 2 17 -4 2 -7 12 -12 23 -12 10 0 19
-5 19 -11 0 -8 4 -8 13 -2 17 15 44 12 44 -4 0 -9 -4 -10 -11 -3 -5 5 -14 10
-19 10 -5 0 -1 -7 8 -16 12 -12 19 -14 27 -6 9 9 16 8 27 -1 12 -10 14 -9 7 8
-5 15 -4 17 5 8 6 -6 19 -9 28 -6 11 4 10 1 -4 -10 -19 -15 -19 -15 8 -10 15
3 24 9 21 14 -3 5 2 6 10 3 9 -3 16 -10 16 -16 0 -5 -4 -7 -9 -3 -5 3 -12 1
-16 -4 -3 -6 4 -8 16 -6 17 3 20 0 16 -15 -3 -12 -1 -17 5 -14 5 3 7 20 4 37
-3 18 -3 25 2 17 4 -8 15 -16 26 -18 10 -2 16 0 13 5 -3 4 14 8 38 8 31 0 41
-3 34 -11 -6 -7 -4 -16 6 -24 8 -7 13 -16 10 -20 -2 -4 5 -16 18 -26 l22 -19
-19 23 c-11 12 -15 22 -11 22 4 0 0 10 -11 22 -18 21 -18 21 0 15 14 -6 17 -4
12 9 -5 13 -4 14 7 6 8 -7 18 -8 22 -4 5 4 5 -2 1 -12 -5 -15 -4 -17 7 -8 8 7
17 9 20 5 4 -3 7 -2 7 4 0 6 16 11 35 11 19 0 35 -5 35 -10 0 -6 8 -4 17 3 15
12 16 12 10 -3 -3 -10 -1 -20 5 -24 7 -4 8 -3 4 5 -5 8 2 11 23 9 17 -1 31 -6
31 -11 0 -5 7 -4 15 3 13 11 14 10 10 -1 -4 -11 9 -14 64 -14 38 0 67 3 65 7
-2 4 1 10 7 14 7 4 9 3 6 -3 -4 -6 6 -21 21 -34 20 -18 22 -19 9 -3 -9 11 -14
24 -11 27 4 4 13 -1 21 -11 8 -9 12 -11 8 -4 -4 8 5 12 32 12 22 0 44 5 51 12
16 16 16 -4 0 -21 -10 -10 -7 -10 12 1 17 9 40 12 70 9 l45 -6 -25 -17 c-13
-10 -19 -18 -13 -18 6 0 16 7 23 15 7 8 17 12 23 8 6 -4 8 0 5 8 -5 12 1 14
23 11 32 -5 34 -8 17 -32 -7 -9 0 -2 16 14 16 17 26 24 23 15 -3 -9 0 -16 9
-16 7 0 10 5 7 10 -4 6 0 8 10 4 10 -3 17 -2 17 2 0 5 9 7 20 4 11 -3 26 0 34
6 10 8 16 9 21 1 9 -14 25 -13 21 3 -1 6 -1 9 1 4 3 -4 10 -4 15 -1 7 4 8 2 4
-4 -9 -15 7 -15 22 0 8 8 15 8 26 -1 12 -10 17 -9 26 6 10 16 11 16 6 1 -8
-25 10 -22 30 5 10 13 14 15 11 5 -7 -21 18 -45 29 -27 4 7 3 9 -3 6 -5 -3
-10 0 -10 7 0 8 6 12 14 9 7 -3 13 -9 13 -14 0 -5 5 -9 11 -9 5 0 8 4 4 9 -3
5 -1 13 5 16 6 4 9 3 8 -2 -2 -4 2 -8 7 -8 5 0 9 3 8 7 -2 4 4 5 13 1 8 -3 13
-12 10 -19 -3 -8 0 -11 9 -7 8 3 12 10 8 17 -3 6 4 2 18 -9 15 -12 19 -14 11
-4 -11 14 -9 18 15 24 16 5 92 9 169 10 78 1 146 5 152 9 6 3 13 2 17 -4 3 -5
12 -10 18 -10 8 0 8 3 -1 9 -11 7 -11 9 2 14 8 3 17 1 20 -6 3 -8 5 -7 6 3 0
10 6 6 16 -10 12 -20 14 -21 9 -4 -4 14 -1 21 9 21 9 0 13 -4 11 -8 -3 -4 2
-10 11 -13 12 -5 15 -2 10 10 -5 13 -3 14 6 7 7 -5 31 -11 52 -12 22 -1 44 -5
49 -8 6 -3 7 -1 3 5 -4 7 -1 12 7 12 10 0 14 -9 12 -30 -1 -16 1 -27 6 -25 4
3 6 14 4 25 -5 24 14 38 26 19 7 -11 9 -9 9 6 0 11 4 16 8 10 4 -5 20 -11 36
-12 27 -2 27 -1 10 12 -18 13 -18 14 5 8 18 -4 22 -3 17 6 -6 10 -3 9 12 0 12
-7 18 -17 15 -23 -3 -5 -1 -6 6 -2 6 4 9 12 6 17 -4 5 1 9 9 9 8 0 17 8 19 18
4 16 5 16 6 0 0 -10 8 -18 17 -18 9 0 12 5 8 13 -6 9 -4 9 7 0 15 -15 33 -17
24 -4 -3 5 0 13 6 17 7 4 9 3 6 -3 -4 -6 0 -13 8 -17 8 -3 15 -1 15 4 0 6 4
10 9 10 5 0 8 -8 6 -17 -1 -10 -7 -17 -12 -16 -5 1 -10 -5 -10 -13 0 -12 4
-11 18 2 10 9 16 20 14 25 -3 4 3 12 12 18 13 7 23 5 36 -7 14 -13 17 -13 12
-1 -4 10 1 15 15 16 11 1 18 -2 16 -6 -3 -4 1 -8 8 -8 8 0 12 6 9 14 -3 7 0
13 6 13 6 0 11 -8 12 -17 0 -15 2 -15 9 2 5 11 9 16 9 11 1 -5 8 -2 17 5 15
12 16 11 9 -11 -7 -24 -6 -24 8 -6 14 19 52 33 41 15 -6 -10 9 -12 19 -2 4 3
25 7 47 8 29 2 40 -2 40 -12 0 -8 -4 -12 -9 -9 -5 4 -8 -2 -6 -11 1 -10 -5
-27 -14 -38 -16 -20 -16 -20 6 -1 12 10 22 21 22 25 -2 17 14 50 23 45 5 -3
16 0 25 8 10 8 14 8 10 1 -4 -6 -3 -14 3 -18 6 -4 7 -12 4 -18 -4 -7 -4 -9 1
-5 4 4 13 3 20 -2 8 -7 12 -5 12 5 0 7 -3 13 -6 12 -3 -1 -8 2 -11 7 -3 5 5
11 18 13 13 1 21 -1 18 -6 -6 -10 12 -9 29 0 9 6 170 5 170 0 0 -2 11 -4 25
-7 19 -3 21 -2 10 5 -18 12 -8 24 14 15 9 -3 13 -11 9 -18 -5 -8 -3 -8 8 0 8
7 25 11 39 10 14 -1 28 3 32 9 5 7 8 6 8 -1 0 -7 11 -9 26 -6 21 4 25 2 19 -9
-5 -8 -5 -11 0 -7 4 4 15 2 24 -4 13 -10 14 -10 4 2 -21 23 -15 27 31 20 41
-6 44 -5 41 16 -1 15 2 21 11 17 7 -2 10 -12 7 -21 -4 -14 -3 -15 5 -2 8 10 7
19 -1 29 -10 12 -9 13 12 2 15 -8 21 -9 17 -2 -4 6 -1 11 6 11 10 0 9 3 -2 9
-8 6 -17 8 -22 5 -11 -7 -38 62 -42 106 -1 20 -7 43 -11 50 -6 9 -4 11 6 5 11
-7 12 -6 3 6 -6 8 -14 30 -18 49 -3 19 -8 42 -10 50 -3 8 -5 25 -5 38 -1 13
-5 21 -10 18 -5 -4 -7 3 -4 14 3 11 1 20 -5 20 -6 0 -8 9 -5 20 3 12 0 20 -8
20 -7 0 -9 3 -6 7 4 3 -1 15 -10 26 -10 11 -12 17 -5 13 11 -7 11 -4 0 15 -7
13 -19 32 -27 42 -8 9 -11 17 -6 17 4 0 2 6 -4 14 -7 8 -25 13 -41 12 -17 -1
-30 2 -30 7 0 5 -7 4 -15 -3 -12 -10 -15 -10 -15 4 0 12 -8 15 -35 11 -19 -2
-35 0 -35 5 0 6 -9 6 -24 0 -16 -6 -26 -5 -28 1 -2 5 -22 11 -46 12 -23 0 -42
5 -42 10 0 5 -6 4 -14 -2 -10 -8 -16 -9 -21 -1 -3 6 -11 8 -16 5 -5 -4 -9 -1
-9 5 0 6 -5 8 -10 5 -6 -4 -7 -11 -4 -17 4 -7 2 -8 -5 -4 -6 4 -9 12 -6 17 4
5 -4 9 -17 9 -23 0 -33 1 -100 15 -32 6 -36 10 -28 25 6 11 5 21 -3 30 -8 9
-8 11 0 6 8 -4 8 0 0 19 -7 14 -15 25 -19 25 -5 0 -8 9 -8 21 0 11 -4 17 -10
14 -5 -3 -10 1 -10 9 0 9 -3 16 -7 16 -5 0 -23 14 -42 31 -19 16 -41 27 -48
24 -8 -2 -12 -1 -9 4 7 10 -94 60 -127 64 -12 1 -28 8 -35 15 -12 10 -42 17
-64 13 -5 0 -8 4 -8 10 0 6 -6 9 -13 6 -7 -3 -24 4 -38 14 -13 10 -30 19 -38
19 -7 0 -40 18 -73 40 -33 22 -64 38 -68 35 -5 -3 -15 3 -22 13 -7 10 -39 29
-70 41 -45 18 -58 28 -59 45 0 11 0 67 1 124 1 96 -1 102 -20 102 -11 0 -20 6
-20 13 0 8 -3 9 -8 1 -9 -15 -64 -41 -79 -38 -7 1 -17 2 -22 3 -17 2 -33 61
-28 108 5 52 9 73 26 116 6 15 8 27 5 27 -2 0 0 8 5 18 5 9 11 31 14 49 3 17
8 37 12 43 37 60 9 285 -61 477 -42 117 -52 135 -66 127 -6 -4 -8 -3 -5 3 10
15 -69 86 -116 104 -37 15 -42 21 -44 50 -1 19 -4 52 -7 74 -17 127 -27 310
-16 310 2 0 10 105 12 170 2 88 -21 214 -53 290 -5 11 -10 30 -12 42 -2 12 -6
26 -10 29 -11 11 -8 193 3 214 7 13 7 21 0 25 -6 4 -10 3 -9 -2 1 -4 0 -15 -2
-23 -1 -8 -5 26 -8 75 -3 50 -3 98 1 107 5 9 3 18 -2 20 -6 2 -12 40 -13 85
-1 45 -4 78 -5 72 -2 -5 -7 -7 -12 -4 -4 2 -4 23 0 45 4 21 3 37 -1 34 -5 -3
-13 6 -18 19 -6 14 -14 28 -20 31 -6 4 -7 14 -4 24 3 9 2 14 -2 9 -10 -8 -55
31 -55 47 0 15 -91 95 -108 96 -7 0 -11 4 -7 9 3 5 -9 19 -26 32 -17 12 -47
37 -67 55 -21 19 -43 32 -49 29 -7 -2 -12 -1 -10 3 1 4 -1 8 -6 10 -4 1 -15
10 -26 20 -40 37 -66 52 -80 47 -9 -3 -12 -3 -8 1 7 8 -22 33 -36 30 -5 0 -13
7 -18 17 -6 9 -14 15 -20 12 -5 -4 -9 -2 -9 3 0 4 -14 19 -31 31 -18 13 -29
17 -25 10 4 -8 -1 -3 -12 10 -12 15 -24 21 -32 16 -8 -5 -11 -4 -7 2 7 11
-168 105 -282 152 -52 21 -73 25 -82 17 -8 -8 -10 -8 -6 0 9 15 -37 36 -51 22
-6 -6 -12 -6 -17 3 -6 8 -4 10 6 5 8 -4 5 0 -5 8 -26 21 -42 20 -25 -1 7 -10
1 -7 -14 7 -24 21 -30 22 -37 10 -8 -13 -10 -12 -10 3 0 11 -9 18 -27 19 -53
3 -58 4 -68 10 -12 7 -58 17 -110 23 -75 9 -94 13 -106 21 -8 5 -10 3 -4 -7 8
-12 6 -12 -8 0 -10 8 -20 11 -23 8 -3 -3 -18 -2 -32 2 -15 4 -38 5 -52 3z
m-153 -18 c-3 -3 -12 -4 -19 -1 -8 3 -5 6 6 6 11 1 17 -2 13 -5z m-507 -38 c0
-2 -7 -7 -16 -10 -8 -3 -12 -2 -9 4 6 10 25 14 25 6z m-3324 -4969 c18 7 18
-1 0 -16 -12 -10 -17 -8 -27 11 -9 18 -9 21 1 11 7 -6 19 -9 26 -6z m594 -2
c-7 -9 -15 -13 -19 -10 -3 3 1 10 9 15 21 14 24 12 10 -5z m1860 -19 c0 -3 -4
-8 -10 -11 -5 -3 -10 -1 -10 4 0 6 5 11 10 11 6 0 10 -2 10 -4z m1269 -32 c-6
-7 -16 -11 -23 -7 -7 5 -5 9 7 11 9 2 14 8 11 14 -4 7 -2 8 5 4 9 -6 9 -11 0
-22z m-929 6 c0 -5 -2 -10 -4 -10 -3 0 -8 5 -11 10 -3 6 -1 10 4 10 6 0 11 -4
11 -10z m160 0 c0 -5 -4 -10 -10 -10 -5 0 -10 5 -10 10 0 6 5 10 10 10 6 0 10
-4 10 -10z m840 2 c0 -13 -12 -22 -22 -16 -10 6 -1 24 13 24 5 0 9 -4 9 -8z"/>
<path d="M8838 2863 c7 -3 16 -2 19 1 4 3 -2 6 -13 5 -11 0 -14 -3 -6 -6z"/>
<path d="M8846 2838 c3 -5 10 -6 15 -3 13 9 11 12 -6 12 -8 0 -12 -4 -9 -9z"/>
<path d="M8394 2732 c4 -7 2 -21 -5 -30 -12 -15 -11 -15 6 0 16 15 17 20 6 30
-11 11 -13 10 -7 0z"/>
<path d="M910 2720 c0 -5 5 -10 11 -10 5 0 7 5 4 10 -3 6 -8 10 -11 10 -2 0
-4 -4 -4 -10z"/>
<path d="M5196 2722 c-3 -5 1 -9 9 -9 8 0 12 4 9 9 -3 4 -7 8 -9 8 -2 0 -6 -4
-9 -8z"/>
<path d="M8453 2713 c0 -9 4 -10 14 -2 7 6 13 12 13 14 0 1 -6 2 -13 2 -8 0
-14 -6 -14 -14z"/>
<path d="M8751 2707 c-13 -21 -12 -21 5 -5 10 10 16 20 13 22 -3 3 -11 -5 -18
-17z"/>
<path d="M8805 2720 c-3 -6 1 -7 9 -4 18 7 21 14 7 14 -6 0 -13 -4 -16 -10z"/>
<path d="M7906 2703 c-6 -14 -5 -15 5 -6 7 7 10 15 7 18 -3 3 -9 -2 -12 -12z"/>
<path d="M988 2703 c6 -2 9 -10 6 -15 -4 -7 -2 -8 5 -4 13 9 5 26 -12 25 -9 0
-8 -2 1 -6z"/>
<path d="M1154 2696 c3 -10 2 -24 -4 -31 -7 -8 -6 -12 4 -12 15 0 15 42 1 55
-5 4 -5 -1 -1 -12z"/>
<path d="M1296 2701 c-4 -6 -12 -8 -18 -5 -6 4 -8 3 -5 -3 4 -6 18 -9 32 -8
14 2 25 -2 25 -8 0 -5 3 -7 7 -4 3 4 16 -1 27 -10 15 -13 17 -14 9 -2 -9 10
-9 19 -3 25 7 7 0 10 -22 9 -18 -1 -36 2 -39 8 -4 5 -9 5 -13 -2z"/>
<path d="M5160 2700 c-9 -6 -10 -10 -3 -10 6 0 15 5 18 10 8 12 4 12 -15 0z"/>
<path d="M8115 2702 c3 -3 -1 -12 -7 -21 -8 -10 -4 -9 10 3 26 23 26 23 7 23
-8 0 -13 -3 -10 -5z"/>
<path d="M8155 2702 c3 -3 -3 -15 -12 -26 -13 -15 -10 -14 10 3 32 29 31 28
12 28 -8 0 -13 -3 -10 -5z"/>
<path d="M8555 2702 c3 -3 -3 -15 -12 -26 -14 -15 -14 -18 -2 -8 9 6 18 11 20
9 2 -1 3 0 2 2 -2 2 2 9 7 16 7 8 5 12 -5 12 -8 0 -13 -3 -10 -5z"/>
<path d="M8595 2702 c3 -3 -1 -12 -7 -21 -8 -10 -4 -9 10 3 26 23 26 23 7 23
-8 0 -13 -3 -10 -5z"/>
<path d="M1021 2678 c-13 -20 -12 -22 1 -11 8 7 17 11 20 8 2 -3 5 2 5 10 0
21 -10 19 -26 -7z"/>
<path d="M1066 2684 c-5 -14 -4 -15 9 -4 17 14 19 20 6 20 -5 0 -12 -7 -15
-16z"/>
<path d="M1857 2685 c-4 -8 -3 -16 1 -19 4 -3 9 4 9 15 2 23 -3 25 -10 4z"/>
<path d="M1996 2683 c-4 -9 -4 -14 0 -10 4 4 14 1 23 -6 14 -11 15 -10 1 8 -8
11 -15 21 -16 23 -1 2 -5 -5 -8 -15z"/>
<path d="M2041 2684 c0 -11 3 -14 6 -6 3 7 2 16 -1 19 -3 4 -6 -2 -5 -13z"/>
<path d="M2285 2690 c-4 -6 -11 -8 -16 -5 -5 4 -9 2 -9 -3 0 -5 11 -9 25 -9
25 0 33 11 16 22 -5 3 -12 1 -16 -5z"/>
<path d="M5213 2685 c0 -8 3 -13 5 -10 3 3 12 -1 21 -7 10 -8 9 -4 -3 10 -23
26 -23 26 -23 7z"/>
<path d="M7983 2682 c10 -10 15 -21 12 -24 -3 -2 2 -5 10 -5 12 0 10 6 -7 24
-25 27 -39 32 -15 5z"/>
<path d="M8023 2684 c9 -11 14 -23 11 -26 -3 -3 -1 -8 4 -12 18 -11 8 25 -12
41 -21 18 -21 18 -3 -3z"/>
<path d="M8333 2685 c0 -8 3 -13 5 -10 3 3 12 -1 21 -7 10 -8 9 -4 -3 10 -23
26 -23 26 -23 7z"/>
<path d="M8409 2683 c-13 -16 -12 -17 4 -4 9 7 17 15 17 17 0 8 -8 3 -21 -13z"/>
<path d="M8490 2696 c0 -2 8 -10 18 -17 15 -13 16 -12 3 4 -13 16 -21 21 -21
13z"/>
<path d="M8655 2690 c-4 -6 -10 -8 -15 -5 -4 3 -14 -3 -21 -13 -12 -15 -12
-16 2 -5 9 7 18 11 21 8 3 -3 11 1 18 10 7 8 10 15 7 15 -3 0 -9 -5 -12 -10z"/>
<path d="M8719 2695 c-1 -3 -2 -8 -3 -12 -1 -5 -5 -15 -10 -23 -7 -12 -6 -13
4 -3 13 12 23 43 14 43 -2 0 -5 -2 -5 -5z"/>
<path d="M8769 2683 c-13 -16 -12 -17 4 -4 16 13 21 21 13 21 -2 0 -10 -8 -17
-17z"/>
<path d="M2110 2675 c5 -7 8 -14 5 -17 -3 -2 2 -5 10 -5 10 0 12 4 5 12 -5 7
-8 14 -5 17 3 2 -2 5 -10 5 -10 0 -12 -4 -5 -12z"/>
<path d="M5373 2673 c0 -9 4 -10 14 -2 7 6 13 12 13 14 0 1 -6 2 -13 2 -8 0
-14 -6 -14 -14z"/>
<path d="M7800 2685 c0 -2 6 -8 13 -14 10 -8 14 -7 14 2 0 8 -6 14 -14 14 -7
0 -13 -1 -13 -2z"/>
<path d="M7949 2677 c6 -8 9 -16 6 -19 -3 -2 2 -5 10 -5 13 0 13 3 -2 19 -19
21 -31 25 -14 5z"/>
<path d="M8271 2687 c2 -2 11 -8 20 -15 12 -9 16 -9 16 1 0 7 -9 14 -20 14
-11 1 -18 1 -16 0z"/>
<path d="M8437 2672 c-15 -16 -15 -19 -2 -19 8 0 13 3 10 5 -3 3 0 11 6 19 17
20 5 16 -14 -5z"/>
<path d="M8677 2672 c-15 -16 -15 -19 -2 -19 8 0 13 3 10 5 -3 3 0 11 6 19 17
20 5 16 -14 -5z"/>
<path d="M5470 2676 c0 -2 8 -10 18 -17 15 -13 16 -12 3 4 -13 16 -21 21 -21
13z"/>
<path d="M959 2653 c-13 -16 -12 -17 4 -4 9 7 17 15 17 17 0 8 -8 3 -21 -13z"/>
<path d="M1107 2659 c7 -7 15 -10 18 -7 3 3 -2 9 -12 12 -14 6 -15 5 -6 -5z"/>
<path d="M2070 2666 c0 -2 7 -7 16 -10 8 -3 12 -2 9 4 -6 10 -25 14 -25 6z"/>
<path d="M5270 2655 c5 -7 6 -16 2 -21 -4 -5 -3 -6 2 -2 5 4 16 2 25 -4 12
-10 12 -7 -2 8 -9 11 -15 23 -12 26 3 2 -2 5 -10 5 -10 0 -12 -4 -5 -12z"/>
<path d="M5300 2666 c0 -2 8 -10 18 -17 15 -13 16 -12 3 4 -13 16 -21 21 -21
13z"/>
<path d="M5400 2655 c-7 -8 -16 -13 -20 -10 -5 3 -11 2 -14 -3 -10 -17 24 -8
41 10 9 10 14 18 11 18 -3 0 -11 -7 -18 -15z"/>
<path d="M5740 2660 c-9 -6 -10 -10 -3 -10 6 0 15 5 18 10 8 12 4 12 -15 0z"/>
<path d="M7640 2655 c-7 -8 -16 -13 -20 -10 -5 3 -11 2 -14 -3 -10 -17 24 -8
41 10 9 10 14 18 11 18 -3 0 -11 -7 -18 -15z"/>
<path d="M7789 2658 c11 -15 11 -21 0 -35 -12 -17 -12 -17 6 0 19 17 19 17 0
35 -18 16 -18 16 -6 0z"/>
<path d="M7904 2662 c4 -3 14 -7 22 -8 9 -1 13 0 10 4 -4 3 -14 7 -22 8 -9 1
-13 0 -10 -4z"/>
<path d="M8268 2659 c6 -9 8 -20 4 -25 -4 -5 -3 -6 2 -2 5 4 14 3 21 -2 8 -7
12 -5 12 5 0 8 -3 13 -5 10 -3 -3 -15 3 -26 12 -15 14 -18 14 -8 2z"/>
<path d="M8387 2659 c7 -7 15 -10 18 -7 3 3 -2 9 -12 12 -14 6 -15 5 -6 -5z"/>
<path d="M8466 2662 c-2 -4 4 -8 14 -8 10 0 16 4 14 8 -3 4 -9 8 -14 8 -5 0
-11 -4 -14 -8z"/>
<path d="M1059 2658 c-5 -18 -6 -38 -1 -34 7 8 12 36 6 36 -2 0 -4 -1 -5 -2z"/>
<path d="M1219 2658 c-5 -18 -6 -38 -1 -34 7 8 12 36 6 36 -2 0 -4 -1 -5 -2z"/>
<path d="M1334 2646 c1 -8 5 -18 8 -22 4 -3 5 1 4 10 -1 8 -5 18 -8 22 -4 3
-5 -1 -4 -10z"/>
<path d="M1735 2650 c-4 -6 -12 -7 -18 -4 -7 4 -9 4 -5 -1 4 -4 2 -15 -4 -24
-10 -12 -7 -12 8 2 11 9 23 15 26 12 2 -3 5 2 5 10 0 18 -3 19 -12 5z"/>
<path d="M1814 2646 c1 -8 5 -18 8 -22 4 -3 5 1 4 10 -1 8 -5 18 -8 22 -4 3
-5 -1 -4 -10z"/>
<path d="M1974 2646 c1 -8 5 -18 8 -22 4 -3 5 1 4 10 -1 8 -5 18 -8 22 -4 3
-5 -1 -4 -10z"/>
<path d="M2054 2640 c0 -13 4 -16 10 -10 7 7 7 13 0 20 -6 6 -10 3 -10 -10z"/>
<path d="M3615 2650 c-4 -6 -11 -7 -17 -4 -7 4 -8 2 -4 -5 6 -9 11 -9 22 0 14
11 18 19 10 19 -3 0 -8 -5 -11 -10z"/>
<path d="M3774 2646 c1 -8 5 -18 8 -22 4 -3 5 1 4 10 -1 8 -5 18 -8 22 -4 3
-5 -1 -4 -10z"/>
<path d="M4097 2641 c-4 -17 -3 -21 5 -13 5 5 8 16 6 23 -3 8 -7 3 -11 -10z"/>
<path d="M4705 2651 c-3 -5 -2 -12 3 -15 5 -3 9 1 9 9 0 17 -3 19 -12 6z"/>
<path d="M4734 2646 c1 -8 5 -18 8 -22 4 -3 5 1 4 10 -1 8 -5 18 -8 22 -4 3
-5 -1 -4 -10z"/>
<path d="M4805 2650 c-4 -6 -12 -7 -18 -3 -9 5 -9 3 -1 -8 6 -8 10 -31 9 -51
-1 -21 1 -36 3 -33 3 3 12 -1 21 -8 14 -11 15 -10 1 7 -16 20 -21 84 -8 92 5
3 17 0 26 -8 15 -12 16 -11 3 5 -15 19 -27 22 -36 7z"/>
<path d="M5086 2643 c-6 -14 -5 -15 5 -6 7 7 10 15 7 18 -3 3 -9 -2 -12 -12z"/>
<path d="M5465 2640 c10 -11 20 -20 23 -20 3 0 -3 9 -13 20 -10 11 -20 20 -23
20 -3 0 3 -9 13 -20z"/>
<path d="M5879 2653 c0 -5 -2 -16 -4 -25 -2 -9 7 -25 18 -35 22 -18 22 -18 6
2 -9 11 -15 30 -13 43 2 12 2 22 -1 22 -3 0 -5 -3 -6 -7z"/>
<path d="M5910 2651 c0 -5 7 -11 14 -14 10 -4 13 -1 9 9 -6 15 -23 19 -23 5z"/>
<path d="M7015 2649 c-4 -6 -5 -12 -2 -15 2 -3 7 2 10 11 7 17 1 20 -8 4z"/>
<path d="M7065 2650 c-4 -6 -10 -8 -15 -5 -5 3 -12 0 -16 -7 -4 -7 -4 -10 1
-6 4 4 15 2 23 -5 11 -8 14 -9 9 0 -4 7 0 16 10 22 10 6 13 11 6 11 -6 0 -15
-5 -18 -10z"/>
<path d="M7150 2650 c-8 -5 -12 -12 -9 -15 4 -3 12 1 19 10 14 17 11 19 -10 5z"/>
<path d="M7180 2637 c-12 -20 -12 -21 3 -8 13 10 20 11 30 2 10 -8 14 -7 14 4
0 8 -3 13 -5 10 -3 -3 -10 -1 -16 5 -8 6 -16 2 -26 -13z"/>
<path d="M8095 2651 c-3 -5 -2 -12 3 -15 5 -3 9 1 9 9 0 17 -3 19 -12 6z"/>
<path d="M8333 2645 c0 -8 3 -13 5 -10 3 3 15 -3 26 -12 15 -14 18 -14 8 -2
-6 9 -8 20 -4 25 4 5 3 6 -2 2 -5 -4 -14 -3 -21 2 -8 7 -12 5 -12 -5z"/>
<path d="M8575 2649 c-4 -6 -5 -12 -2 -15 2 -3 7 2 10 11 7 17 1 20 -8 4z"/>
<path d="M8735 2651 c-3 -5 -2 -12 3 -15 5 -3 9 1 9 9 0 17 -3 19 -12 6z"/>
<path d="M1466 2638 c3 -5 9 -7 12 -4 3 3 12 0 21 -6 13 -10 14 -10 4 2 -15
16 -46 23 -37 8z"/>
<path d="M1630 2643 c0 -5 14 -9 31 -9 35 -2 33 5 -5 12 -14 2 -26 1 -26 -3z"/>
<path d="M2665 2639 c-3 -4 2 -6 10 -5 21 3 28 13 10 13 -9 0 -18 -4 -20 -8z"/>
<path d="M3199 2648 c-7 -25 -3 -40 14 -55 22 -18 22 -18 6 2 -9 11 -15 28
-14 38 3 13 -2 26 -6 15z"/>
<path d="M3570 2641 c0 -6 4 -13 10 -16 6 -3 7 1 4 9 -7 18 -14 21 -14 7z"/>
<path d="M3730 2642 c0 -5 7 -9 15 -9 8 0 12 4 9 9 -3 4 -9 8 -15 8 -5 0 -9
-4 -9 -8z"/>
<path d="M4870 2628 c-10 -21 -10 -21 3 -6 8 10 18 14 22 10 5 -4 5 -1 1 6
-10 17 -14 15 -26 -10z"/>
<path d="M5419 2633 c-13 -16 -12 -17 4 -4 16 13 21 21 13 21 -2 0 -10 -8 -17
-17z"/>
<path d="M5600 2646 c0 -2 8 -10 18 -17 15 -13 16 -12 3 4 -13 16 -21 21 -21
13z"/>
<path d="M5692 2641 c-11 -7 -10 -9 3 -14 9 -4 14 -3 10 2 -3 5 1 12 7 14 7 3
9 6 3 6 -5 0 -16 -3 -23 -8z"/>
<path d="M7096 2633 c-6 -14 -5 -15 5 -6 7 7 10 15 7 18 -3 3 -9 -2 -12 -12z"/>
<path d="M7290 2641 c0 -6 4 -13 10 -16 6 -3 7 1 4 9 -7 18 -14 21 -14 7z"/>
<path d="M7339 2633 c-13 -16 -12 -17 4 -4 16 13 21 21 13 21 -2 0 -10 -8 -17
-17z"/>
<path d="M7520 2646 c0 -2 8 -10 18 -17 15 -13 16 -12 3 4 -13 16 -21 21 -21
13z"/>
<path d="M7695 2640 c-5 -8 62 -7 69 1 3 2 -11 5 -30 5 -20 0 -37 -3 -39 -6z"/>
<path d="M7876 2641 c-3 -5 2 -15 12 -22 15 -12 16 -12 5 2 -7 9 -10 19 -6 22
3 4 4 7 0 7 -3 0 -8 -4 -11 -9z"/>
<path d="M8196 2638 c2 -4 14 -5 26 -3 32 7 32 13 -1 11 -16 0 -27 -4 -25 -8z"/>
<path d="M2270 2636 c0 -2 8 -10 18 -17 15 -13 16 -12 3 4 -13 16 -21 21 -21
13z"/>
<path d="M3150 2636 c0 -2 8 -10 18 -17 15 -13 16 -12 3 4 -13 16 -21 21 -21
13z"/>
<path d="M4386 2623 c-6 -14 -5 -15 5 -6 7 7 10 15 7 18 -3 3 -9 -2 -12 -12z"/>
<path d="M4430 2636 c0 -2 7 -7 16 -10 8 -3 12 -2 9 4 -6 10 -25 14 -25 6z"/>
<path d="M5155 2630 c-3 -5 -3 -10 1 -10 4 0 -1 -10 -12 -22 -19 -23 -19 -23
2 -5 11 9 21 24 21 32 0 18 -3 19 -12 5z"/>
<path d="M5553 2625 c0 -8 10 -23 21 -32 21 -18 21 -18 4 2 -9 11 -17 24 -16
28 0 5 -2 11 -4 13 -3 2 -5 -3 -5 -11z"/>
<path d="M5734 2628 c-4 -7 -3 -8 5 -4 6 4 20 2 29 -6 15 -12 16 -11 3 5 -16
20 -27 22 -37 5z"/>
<path d="M6645 2629 c-4 -6 -5 -12 -2 -15 2 -3 7 2 10 11 7 17 1 20 -8 4z"/>
<path d="M6735 2630 c-3 -5 -1 -10 4 -10 6 0 11 5 11 10 0 6 -2 10 -4 10 -3 0
-8 -4 -11 -10z"/>
<path d="M7393 2625 c0 -8 10 -23 21 -32 21 -18 21 -18 4 2 -9 11 -17 24 -16
28 0 5 -2 11 -4 13 -3 2 -5 -3 -5 -11z"/>
<path d="M8590 2636 c0 -2 8 -10 18 -17 15 -13 16 -12 3 4 -13 16 -21 21 -21
13z"/>
<path d="M1152 2611 c7 -9 13 -18 15 -20 1 -2 1 5 0 16 0 11 -7 20 -14 20 -10
0 -10 -4 -1 -16z"/>
<path d="M1240 2615 c-7 -8 -16 -13 -20 -10 -4 2 -16 -5 -26 -18 -19 -22 -19
-22 2 -4 11 9 23 15 26 12 3 -3 13 4 23 15 10 11 16 20 13 20 -3 0 -11 -7 -18
-15z"/>
<path d="M1312 2614 c9 -11 27 -20 39 -21 23 -2 20 7 -4 11 -8 1 -23 8 -33 16
-18 14 -18 14 -2 -6z"/>
<path d="M1395 2622 c3 -3 -1 -12 -7 -21 -8 -10 -4 -9 10 3 26 23 26 23 7 23
-8 0 -13 -3 -10 -5z"/>
<path d="M1430 2626 c0 -2 7 -7 16 -10 8 -3 12 -2 9 4 -6 10 -25 14 -25 6z"/>
<path d="M1875 2622 c3 -3 -1 -12 -7 -21 -8 -10 -4 -9 10 3 26 23 26 23 7 23
-8 0 -13 -3 -10 -5z"/>
<path d="M1910 2626 c0 -2 7 -7 16 -10 8 -3 12 -2 9 4 -6 10 -25 14 -25 6z"/>
<path d="M2186 2622 c-2 -4 4 -8 14 -8 10 0 16 4 14 8 -3 4 -9 8 -14 8 -5 0
-11 -4 -14 -8z"/>
<path d="M2600 2620 c-9 -6 -10 -10 -3 -10 6 0 15 5 18 10 8 12 4 12 -15 0z"/>
<path d="M2705 2619 c-3 -4 2 -6 10 -5 21 3 28 13 10 13 -9 0 -18 -4 -20 -8z"/>
<path d="M2755 2622 c3 -3 -1 -12 -7 -21 -8 -10 -4 -9 10 3 26 23 26 23 7 23
-8 0 -13 -3 -10 -5z"/>
<path d="M2793 2623 c4 -3 -1 -16 -10 -27 -18 -21 -18 -21 4 -2 20 16 23 36 6
36 -4 0 -3 -3 0 -7z"/>
<path d="M3080 2615 c-7 -8 -15 -13 -19 -11 -4 3 -13 1 -21 -4 -11 -7 -9 -9 8
-7 19 1 67 37 50 37 -3 0 -11 -7 -18 -15z"/>
<path d="M3237 2608 c19 -21 31 -25 14 -5 -6 8 -9 16 -6 19 3 2 -2 5 -10 5
-13 0 -13 -3 2 -19z"/>
<path d="M3320 2620 c-9 -6 -10 -10 -3 -10 6 0 15 5 18 10 8 12 4 12 -15 0z"/>
<path d="M3425 2619 c-3 -4 2 -6 10 -5 21 3 28 13 10 13 -9 0 -18 -4 -20 -8z"/>
<path d="M3475 2622 c3 -3 -1 -12 -7 -21 -8 -10 -4 -9 10 3 26 23 26 23 7 23
-8 0 -13 -3 -10 -5z"/>
<path d="M3510 2626 c0 -2 7 -7 16 -10 8 -3 12 -2 9 4 -6 10 -25 14 -25 6z"/>
<path d="M3916 2621 c-3 -4 4 -17 17 -27 22 -19 22 -19 4 2 -9 11 -14 24 -10
27 3 4 4 7 0 7 -3 0 -8 -4 -11 -9z"/>
<path d="M3957 2608 c19 -21 31 -25 14 -5 -6 8 -9 16 -6 19 3 2 -2 5 -10 5
-13 0 -13 -3 2 -19z"/>
<path d="M3984 2622 c4 -3 14 -7 22 -8 9 -1 13 0 10 4 -4 3 -14 7 -22 8 -9 1
-13 0 -10 -4z"/>
<path d="M4145 2619 c-3 -4 2 -6 10 -5 21 3 28 13 10 13 -9 0 -18 -4 -20 -8z"/>
<path d="M4195 2622 c3 -3 -1 -12 -7 -21 -8 -10 -4 -9 10 3 26 23 26 23 7 23
-8 0 -13 -3 -10 -5z"/>
<path d="M4827 2619 c7 -7 15 -10 18 -7 3 3 -2 9 -12 12 -14 6 -15 5 -6 -5z"/>
<path d="M5105 2619 c-3 -4 2 -6 10 -5 21 3 28 13 10 13 -9 0 -18 -4 -20 -8z"/>
<path d="M5447 2619 c7 -7 15 -10 18 -7 3 3 -2 9 -12 12 -14 6 -15 5 -6 -5z"/>
<path d="M5580 2626 c0 -2 8 -10 18 -17 15 -13 16 -12 3 4 -13 16 -21 21 -21
13z"/>
<path d="M5824 2622 c4 -3 14 -7 22 -8 9 -1 13 0 10 4 -4 3 -14 7 -22 8 -9 1
-13 0 -10 -4z"/>
<path d="M5907 2619 c7 -7 15 -10 18 -7 3 3 -2 9 -12 12 -14 6 -15 5 -6 -5z"/>
<path d="M6014 2622 c10 -17 -13 -25 -32 -11 -15 12 -15 11 1 -6 16 -18 18
-18 33 -3 12 12 13 17 3 23 -7 5 -10 4 -5 -3z"/>
<path d="M6346 2602 l-19 -27 24 22 c12 12 21 24 18 27 -2 2 -13 -8 -23 -22z"/>
<path d="M7424 2622 c4 -3 14 -7 22 -8 9 -1 13 0 10 4 -4 3 -14 7 -22 8 -9 1
-13 0 -10 -4z"/>
<path d="M8145 2620 c-3 -6 1 -7 9 -4 18 7 21 14 7 14 -6 0 -13 -4 -16 -10z"/>
<path d="M1484 2602 c23 -26 23 -26 23 -7 0 8 -3 13 -5 10 -3 -3 -12 1 -21 7
-10 8 -9 4 3 -10z"/>
<path d="M1610 2616 c0 -2 8 -10 18 -17 15 -13 16 -12 3 4 -13 16 -21 21 -21
13z"/>
<path d="M1654 2600 c0 -13 4 -16 10 -10 7 7 7 13 0 20 -6 6 -10 3 -10 -10z"/>
<path d="M1724 2598 c-12 -14 -13 -18 -3 -10 9 6 18 10 21 7 2 -3 5 2 5 10 0
19 0 19 -23 -7z"/>
<path d="M1964 2602 c23 -26 23 -26 23 -7 0 8 -3 13 -5 10 -3 -3 -12 1 -21 7
-10 8 -9 4 3 -10z"/>
<path d="M2253 2605 c0 -8 3 -13 5 -10 3 3 12 -1 21 -7 10 -8 9 -4 -3 10 -23
26 -23 26 -23 7z"/>
<path d="M2369 2604 c-11 -14 -24 -52 -14 -42 2 1 3 6 2 9 -1 4 7 16 17 28 11
12 17 21 14 21 -3 0 -12 -7 -19 -16z"/>
<path d="M2493 2605 c0 -8 3 -13 5 -10 3 3 12 -1 21 -7 10 -8 9 -4 -3 10 -23
26 -23 26 -23 7z"/>
<path d="M2675 2610 c-4 -6 -10 -8 -14 -6 -4 3 -8 -1 -8 -9 0 -13 4 -12 19 2
18 16 22 23 14 23 -3 0 -8 -5 -11 -10z"/>
<path d="M2844 2598 c-12 -14 -13 -18 -3 -10 9 6 18 10 21 7 2 -3 5 2 5 10 0
19 0 19 -23 -7z"/>
<path d="M2893 2605 c0 -8 3 -13 5 -10 3 3 12 -1 21 -7 10 -8 9 -4 -3 10 -23
26 -23 26 -23 7z"/>
<path d="M3133 2605 c0 -8 3 -13 5 -10 3 3 12 -1 21 -7 10 -8 9 -4 -3 10 -23
26 -23 26 -23 7z"/>
<path d="M3395 2610 c-4 -6 -10 -8 -14 -6 -4 3 -8 -1 -8 -9 0 -13 4 -12 19 2
18 16 22 23 14 23 -3 0 -8 -5 -11 -10z"/>
<path d="M3564 2602 c23 -26 23 -26 23 -7 0 8 -3 13 -5 10 -3 -3 -12 1 -21 7
-10 8 -9 4 3 -10z"/>
<path d="M3703 2604 c9 -11 14 -23 11 -26 -3 -3 -1 -8 4 -12 18 -11 8 25 -12
41 -21 18 -21 18 -3 -3z"/>
<path d="M3853 2605 c0 -8 3 -13 5 -10 3 3 12 -1 21 -7 10 -8 9 -4 -3 10 -23
26 -23 26 -23 7z"/>
<path d="M4044 2602 c23 -26 23 -26 23 -7 0 8 -3 13 -5 10 -3 -3 -12 1 -21 7
-10 8 -9 4 3 -10z"/>
<path d="M4115 2610 c-4 -6 -10 -8 -14 -6 -4 3 -8 -1 -8 -9 0 -13 4 -12 19 2
18 16 22 23 14 23 -3 0 -8 -5 -11 -10z"/>
<path d="M4284 2598 c-12 -14 -13 -18 -3 -10 9 6 18 10 21 7 2 -3 5 2 5 10 0
19 0 19 -23 -7z"/>
<path d="M4554 2585 c0 -19 2 -32 5 -30 2 3 11 -1 20 -7 14 -11 14 -10 0 7 -9
11 -15 28 -14 37 2 10 0 20 -4 22 -4 3 -7 -11 -7 -29z"/>
<path d="M5075 2610 c-4 -6 -10 -8 -14 -6 -4 3 -8 -1 -8 -9 0 -13 4 -12 19 2
18 16 22 23 14 23 -3 0 -8 -5 -11 -10z"/>
<path d="M5263 2604 c9 -11 15 -23 12 -26 -3 -2 2 -5 10 -5 10 0 12 4 5 12 -5
7 -6 16 -2 21 4 5 3 6 -2 2 -5 -4 -16 -2 -25 4 -12 10 -12 7 2 -8z"/>
<path d="M5343 2605 c17 -19 17 -19 35 0 16 18 16 18 0 6 -15 -11 -21 -11 -35
0 -17 12 -17 12 0 -6z"/>
<path d="M6264 2598 l-19 -23 23 19 c21 18 27 26 19 26 -2 0 -12 -10 -23 -22z"/>
<path d="M6610 2616 c0 -2 8 -10 18 -17 15 -13 16 -12 3 4 -13 16 -21 21 -21
13z"/>
<path d="M6703 2604 c9 -11 15 -23 12 -26 -3 -2 2 -5 10 -5 10 0 12 4 5 12 -5
7 -6 16 -2 21 4 5 3 6 -2 2 -5 -4 -16 -2 -25 4 -12 10 -12 7 2 -8z"/>
<path d="M6770 2616 c0 -2 8 -10 18 -17 15 -13 16 -12 3 4 -13 16 -21 21 -21
13z"/>
<path d="M6814 2609 c-3 -6 -2 -15 3 -20 5 -5 9 -1 9 11 0 23 -2 24 -12 9z"/>
<path d="M6889 2603 c-13 -16 -12 -17 4 -4 16 13 21 21 13 21 -2 0 -10 -8 -17
-17z"/>
<path d="M7023 2604 c9 -11 15 -23 12 -26 -3 -2 2 -5 10 -5 10 0 12 4 5 12 -5
7 -6 16 -2 21 4 5 3 6 -2 2 -5 -4 -16 -2 -25 4 -12 10 -12 7 2 -8z"/>
<path d="M7135 2610 c-4 -6 -12 -7 -18 -4 -7 4 -9 4 -5 -1 4 -4 3 -13 -2 -20
-7 -8 -5 -12 5 -12 8 0 13 3 10 5 -3 3 2 14 12 24 9 10 13 18 10 18 -3 0 -9
-5 -12 -10z"/>
<path d="M7263 2604 c9 -11 15 -23 12 -26 -3 -2 2 -5 10 -5 10 0 12 4 5 12 -5
7 -6 16 -2 21 4 5 3 6 -2 2 -5 -4 -16 -2 -25 4 -12 10 -12 7 2 -8z"/>
<path d="M7615 2610 c-4 -6 -12 -7 -18 -4 -7 4 -9 4 -5 -1 4 -4 3 -13 -2 -20
-7 -8 -5 -12 5 -12 8 0 13 3 10 5 -3 3 2 14 12 24 9 10 13 18 10 18 -3 0 -9
-5 -12 -10z"/>
<path d="M7690 2616 c0 -2 8 -10 18 -17 15 -13 16 -12 3 4 -13 16 -21 21 -21
13z"/>
<path d="M7734 2600 c0 -13 4 -16 10 -10 7 7 7 13 0 20 -6 6 -10 3 -10 -10z"/>
<path d="M7804 2598 c-12 -14 -13 -18 -3 -10 9 6 18 10 21 7 2 -3 5 2 5 10 0
19 0 19 -23 -7z"/>
<path d="M7853 2605 c0 -8 3 -13 5 -10 3 3 12 -1 21 -7 10 -8 9 -4 -3 10 -23
26 -23 26 -23 7z"/>
<path d="M7965 2600 c-10 -11 -15 -20 -10 -20 4 0 1 -8 -6 -17 -13 -16 -12
-17 4 -4 9 8 15 16 12 19 -3 3 2 14 12 24 9 10 14 18 11 18 -3 0 -13 -9 -23
-20z"/>
<path d="M8093 2605 c0 -8 3 -13 5 -10 3 3 12 -1 21 -7 10 -8 9 -4 -3 10 -23
26 -23 26 -23 7z"/>
<path d="M8209 2603 c-13 -16 -12 -17 4 -4 16 13 21 21 13 21 -2 0 -10 -8 -17
-17z"/>
<path d="M8273 2605 c0 -8 4 -12 9 -9 5 3 6 10 3 15 -9 13 -12 11 -12 -6z"/>
<path d="M8333 2605 c0 -8 3 -13 5 -10 3 3 12 -1 21 -7 10 -8 9 -4 -3 10 -23
26 -23 26 -23 7z"/>
<path d="M8414 2609 c-3 -6 -2 -15 3 -20 5 -5 9 -1 9 11 0 23 -2 24 -12 9z"/>
<path d="M8582 2604 c10 -10 20 -16 22 -13 3 3 -5 11 -17 18 -21 13 -21 12 -5
-5z"/>
<path d="M1053 2593 c0 -10 4 -10 16 -1 9 7 18 13 20 15 2 1 -5 1 -16 0 -11 0
-20 -7 -20 -14z"/>
<path d="M1120 2606 c0 -2 8 -10 18 -17 15 -13 16 -12 3 4 -13 16 -21 21 -21
13z"/>
<path d="M1419 2593 c-13 -16 -12 -17 4 -4 16 13 21 21 13 21 -2 0 -10 -8 -17
-17z"/>
<path d="M1590 2603 c0 -6 8 -17 18 -24 16 -13 16 -13 2 6 -8 11 -16 22 -17
24 -2 2 -3 0 -3 -6z"/>
<path d="M1773 2593 c0 -10 4 -10 16 -1 9 7 18 13 20 15 2 1 -5 1 -16 0 -11 0
-20 -7 -20 -14z"/>
<path d="M2033 2586 l-18 -21 24 20 c13 11 25 19 28 17 3 -2 7 -2 9 1 2 2 -3
4 -11 4 -8 0 -23 -10 -32 -21z"/>
<path d="M2391 2587 c-13 -21 -12 -21 5 -5 10 10 16 20 13 22 -3 3 -11 -5 -18
-17z"/>
<path d="M3633 2586 l-18 -21 24 20 c13 11 25 19 28 17 3 -2 7 -2 9 1 2 2 -3
4 -11 4 -8 0 -23 -10 -32 -21z"/>
<path d="M3766 2598 c4 -5 9 -7 12 -4 3 3 15 -2 26 -11 21 -18 21 -18 3 3 -16
20 -52 30 -41 12z"/>
<path d="M4219 2593 c-13 -17 -13 -17 6 -3 11 8 22 16 24 17 2 2 0 3 -6 3 -6
0 -17 -8 -24 -17z"/>
<path d="M4726 2598 c4 -5 9 -7 12 -4 3 3 15 -2 26 -11 21 -18 21 -18 3 3 -16
20 -52 30 -41 12z"/>
<path d="M5000 2605 c0 -2 6 -8 13 -14 10 -8 14 -7 14 2 0 8 -6 14 -14 14 -7
0 -13 -1 -13 -2z"/>
<path d="M5233 2593 c0 -11 7 -20 14 -20 10 0 10 4 1 16 -7 9 -13 18 -15 20
-1 2 -1 -5 0 -16z"/>
<path d="M5309 2597 c6 -8 9 -16 6 -19 -3 -2 2 -5 10 -5 13 0 13 3 -2 19 -19
21 -31 25 -14 5z"/>
<path d="M5397 2592 c-15 -16 -15 -19 -2 -19 8 0 13 3 10 5 -3 3 0 11 6 19 17
20 5 16 -14 -5z"/>
<path d="M5435 2603 c3 -3 0 -11 -5 -18 -7 -8 -5 -12 4 -12 14 0 16 22 3 32
-4 3 -5 2 -2 -2z"/>
<path d="M5477 2592 c-15 -16 -15 -19 -2 -19 8 0 13 3 10 5 -3 3 0 11 6 19 17
20 5 16 -14 -5z"/>
<path d="M5629 2597 c6 -8 9 -16 6 -19 -3 -2 2 -5 10 -5 13 0 13 3 -2 19 -19
21 -31 25 -14 5z"/>
<path d="M5717 2592 c-15 -16 -15 -19 -2 -19 8 0 13 3 10 5 -3 3 0 11 6 19 17
20 5 16 -14 -5z"/>
<path d="M5953 2593 c0 -11 7 -20 14 -20 10 0 10 4 1 16 -7 9 -13 18 -15 20
-1 2 -1 -5 0 -16z"/>
<path d="M6040 2606 c0 -2 8 -10 18 -17 15 -13 16 -12 3 4 -13 16 -21 21 -21
13z"/>
<path d="M6189 2597 c6 -8 9 -16 6 -19 -3 -2 2 -5 10 -5 13 0 13 3 -2 19 -19
21 -31 25 -14 5z"/>
<path d="M6595 2590 c10 -11 20 -20 23 -20 3 0 -3 9 -13 20 -10 11 -20 20 -23
20 -3 0 3 -9 13 -20z"/>
<path d="M6659 2593 c-13 -16 -12 -17 4 -4 16 13 21 21 13 21 -2 0 -10 -8 -17
-17z"/>
<path d="M6749 2597 c6 -8 9 -16 6 -19 -3 -2 2 -5 10 -5 13 0 13 3 -2 19 -19
21 -31 25 -14 5z"/>
<path d="M6840 2606 c0 -2 8 -10 18 -17 15 -13 16 -12 3 4 -13 16 -21 21 -21
13z"/>
<path d="M6917 2592 c-15 -16 -15 -19 -2 -19 8 0 13 3 10 5 -3 3 0 11 6 19 17
20 5 16 -14 -5z"/>
<path d="M6989 2597 c6 -8 9 -16 6 -19 -3 -2 2 -5 10 -5 13 0 13 3 -2 19 -19
21 -31 25 -14 5z"/>
<path d="M7157 2592 c-15 -16 -15 -19 -2 -19 8 0 13 3 10 5 -3 3 0 11 6 19 17
20 5 16 -14 -5z"/>
<path d="M7229 2597 c6 -8 9 -16 6 -19 -3 -2 2 -5 10 -5 13 0 13 3 -2 19 -19
21 -31 25 -14 5z"/>
<path d="M7637 2592 c-15 -16 -15 -19 -2 -19 8 0 13 3 10 5 -3 3 0 11 6 19 17
20 5 16 -14 -5z"/>
<path d="M7991 2587 c-13 -21 -12 -21 5 -5 10 10 16 20 13 22 -3 3 -11 -5 -18
-17z"/>
<path d="M8160 2606 c0 -2 8 -10 18 -17 15 -13 16 -12 3 4 -13 16 -21 21 -21
13z"/>
<path d="M8486 2598 c3 -5 10 -6 15 -3 13 9 11 12 -6 12 -8 0 -12 -4 -9 -9z"/>
<path d="M2190 2596 c0 -2 8 -10 18 -17 15 -13 16 -12 3 4 -13 16 -21 21 -21
13z"/>
<path d="M4390 2596 c0 -2 8 -10 18 -17 15 -13 16 -12 3 4 -13 16 -21 21 -21
13z"/>
<path d="M4434 2575 c0 -14 2 -22 5 -20 2 3 11 -1 20 -7 12 -10 12 -7 -2 8 -9
11 -14 23 -11 26 3 3 1 8 -3 11 -5 3 -9 -5 -9 -18z"/>
<path d="M4510 2596 c0 -2 8 -10 18 -17 15 -13 16 -12 3 4 -13 16 -21 21 -21
13z"/>
<path d="M4630 2596 c0 -2 8 -10 18 -17 15 -13 16 -12 3 4 -13 16 -21 21 -21
13z"/>
<path d="M4870 2596 c0 -2 8 -10 18 -17 15 -13 16 -12 3 4 -13 16 -21 21 -21
13z"/>
<path d="M1109 2577 c6 -8 7 -18 3 -22 -4 -5 -1 -5 6 -1 10 6 10 11 1 22 -6 8
-14 14 -16 14 -3 0 0 -6 6 -13z"/>
<path d="M1439 2573 c-13 -16 -12 -17 4 -4 9 7 17 15 17 17 0 8 -8 3 -21 -13z"/>
<path d="M1680 2575 c-7 -8 -9 -15 -5 -15 4 0 1 -8 -6 -17 -13 -16 -12 -17 4
-4 9 8 15 16 12 19 -3 3 0 11 6 19 6 7 9 13 6 13 -2 0 -10 -7 -17 -15z"/>
<path d="M1800 2575 c-7 -8 -16 -12 -21 -9 -5 3 -9 0 -9 -5 0 -17 15 -13 35 9
10 11 16 20 13 20 -3 0 -11 -7 -18 -15z"/>
<path d="M1940 2586 c0 -2 8 -10 18 -17 15 -13 16 -12 3 4 -13 16 -21 21 -21
13z"/>
<path d="M2300 2586 c0 -2 8 -10 18 -17 15 -13 16 -12 3 4 -13 16 -21 21 -21
13z"/>
<path d="M2540 2585 c0 -2 6 -8 13 -14 10 -8 14 -7 14 2 0 8 -6 14 -14 14 -7
0 -13 -1 -13 -2z"/>
<path d="M2591 2573 c7 -12 15 -20 18 -17 3 2 -3 12 -13 22 -17 16 -18 16 -5
-5z"/>
<path d="M2680 2575 c-7 -8 -16 -13 -20 -10 -4 2 -16 -5 -26 -18 -19 -22 -19
-22 2 -4 11 9 23 15 26 12 3 -3 13 4 23 15 10 11 16 20 13 20 -3 0 -11 -7 -18
-15z"/>
<path d="M2800 2575 c-7 -9 -11 -17 -9 -20 3 -2 10 5 17 15 14 24 10 26 -8 5z"/>
<path d="M2950 2576 c7 -7 13 -7 20 0 6 6 3 10 -10 10 -13 0 -16 -4 -10 -10z"/>
<path d="M3199 2567 c29 -32 28 -31 28 -12 0 8 -3 13 -5 10 -3 -3 -15 3 -26
12 -15 13 -14 10 3 -10z"/>
<path d="M3311 2573 c7 -12 15 -20 18 -17 3 2 -3 12 -13 22 -17 16 -18 16 -5
-5z"/>
<path d="M3400 2575 c-7 -8 -16 -13 -20 -10 -4 2 -16 -5 -26 -18 -19 -22 -19
-22 2 -4 11 9 23 15 26 12 3 -3 13 4 23 15 10 11 16 20 13 20 -3 0 -11 -7 -18
-15z"/>
<path d="M3559 2567 c29 -32 28 -31 28 -12 0 8 -3 13 -5 10 -3 -3 -15 3 -26
12 -15 13 -14 10 3 -10z"/>
<path d="M3900 2586 c0 -2 8 -10 18 -17 15 -13 16 -12 3 4 -13 16 -21 21 -21
13z"/>
<path d="M4034 2573 c21 -25 36 -30 36 -11 0 6 -3 8 -7 5 -3 -4 -16 1 -27 10
-21 18 -21 18 -2 -4z"/>
<path d="M4123 2578 c-4 -7 -8 -20 -8 -29 0 -9 -7 -24 -15 -35 -14 -18 -14
-19 7 -1 11 10 20 26 18 35 -1 9 2 23 8 30 5 6 7 12 4 12 -3 0 -9 -6 -14 -12z"/>
<path d="M4239 2573 c-13 -16 -12 -17 4 -4 16 13 21 21 13 21 -2 0 -10 -8 -17
-17z"/>
<path d="M4987 2579 c7 -9 11 -18 8 -21 -3 -3 3 -11 12 -19 16 -12 17 -12 6 2
-7 9 -11 18 -8 21 3 3 -3 11 -12 19 -16 12 -17 12 -6 -2z"/>
<path d="M5079 2573 c-13 -16 -12 -17 4 -4 16 13 21 21 13 21 -2 0 -10 -8 -17
-17z"/>
<path d="M6946 2582 c-2 -4 4 -8 14 -8 10 0 16 4 14 8 -3 4 -9 8 -14 8 -5 0
-11 -4 -14 -8z"/>
<path d="M7186 2582 c-2 -4 4 -8 14 -8 10 0 16 4 14 8 -3 4 -9 8 -14 8 -5 0
-11 -4 -14 -8z"/>
<path d="M7666 2582 c-2 -4 4 -8 14 -8 10 0 16 4 14 8 -3 4 -9 8 -14 8 -5 0
-11 -4 -14 -8z"/>
<path d="M7760 2574 c-11 -12 -10 -18 5 -32 18 -16 18 -16 6 1 -11 14 -11 20
-1 32 7 8 10 15 7 15 -2 0 -10 -7 -17 -16z"/>
<path d="M7910 2576 c7 -7 13 -7 20 0 6 6 3 10 -10 10 -13 0 -16 -4 -10 -10z"/>
<path d="M8149 2577 c6 -8 7 -18 3 -22 -4 -5 -1 -5 6 -1 10 6 10 11 1 22 -6 8
-14 14 -16 14 -3 0 0 -6 6 -13z"/>
<path d="M1214 2569 c-3 -6 -2 -15 3 -20 5 -5 9 -1 9 11 0 23 -2 24 -12 9z"/>
<path d="M1375 2569 c-4 -6 -5 -12 -2 -15 2 -3 7 2 10 11 7 17 1 20 -8 4z"/>
<path d="M1855 2570 c-4 -6 -10 -8 -14 -6 -8 6 -8 -60 0 -69 3 -3 5 7 4 22 -1
16 5 36 13 46 8 9 12 17 9 17 -3 0 -9 -5 -12 -10z"/>
<path d="M1894 2560 c0 -13 4 -16 10 -10 7 7 7 13 0 20 -6 6 -10 3 -10 -10z"/>
<path d="M2039 2553 c-17 -20 -18 -23 -3 -10 11 9 23 15 26 12 2 -3 5 2 5 10
0 19 1 20 -28 -12z"/>
<path d="M2174 2566 c1 -8 5 -18 8 -22 4 -3 5 1 4 10 -1 8 -5 18 -8 22 -4 3
-5 -1 -4 -10z"/>
<path d="M2494 2560 c0 -13 4 -16 10 -10 7 7 7 13 0 20 -6 6 -10 3 -10 -10z"/>
<path d="M2734 2569 c-3 -6 -2 -15 3 -20 5 -5 9 -1 9 11 0 23 -2 24 -12 9z"/>
<path d="M2855 2570 c-4 -6 -10 -8 -15 -5 -4 3 -14 -3 -21 -13 -12 -15 -12
-16 2 -5 9 7 18 11 21 8 3 -3 11 1 18 10 7 8 10 15 7 15 -3 0 -9 -5 -12 -10z"/>
<path d="M2896 2567 c3 -10 9 -15 12 -12 3 3 0 11 -7 18 -10 9 -11 8 -5 -6z"/>
<path d="M3059 2578 c-5 -18 -6 -38 -1 -34 7 8 12 36 6 36 -2 0 -4 -1 -5 -2z"/>
<path d="M3136 2567 c3 -10 9 -15 12 -12 3 3 0 11 -7 18 -10 9 -11 8 -5 -6z"/>
<path d="M3250 2577 c0 -2 6 -10 14 -16 11 -9 16 -9 22 1 4 7 4 10 -1 6 -4 -4
-14 -3 -22 3 -7 6 -13 9 -13 6z"/>
<path d="M3454 2569 c-3 -6 -2 -15 3 -20 5 -5 9 -1 9 11 0 23 -2 24 -12 9z"/>
<path d="M3501 2565 c9 -11 15 -28 14 -37 -2 -10 0 -20 4 -22 4 -3 7 11 7 29
0 19 -2 32 -5 30 -2 -3 -11 1 -20 7 -14 11 -14 10 0 -7z"/>
<path d="M3645 2560 c-10 -11 -14 -20 -10 -20 4 0 0 -10 -11 -22 l-19 -23 23
19 c12 11 20 21 17 24 -3 3 2 14 12 24 9 10 14 18 11 18 -3 0 -13 -9 -23 -20z"/>
<path d="M3974 2566 c1 -8 5 -18 8 -22 4 -3 5 1 4 10 -1 8 -5 18 -8 22 -4 3
-5 -1 -4 -10z"/>
<path d="M4299 2578 c-5 -18 -6 -38 -1 -34 7 8 12 36 6 36 -2 0 -4 -1 -5 -2z"/>
<path d="M4373 2565 c0 -8 3 -13 5 -10 3 3 15 -3 26 -12 15 -13 14 -10 -3 10
-29 32 -28 31 -28 12z"/>
<path d="M4493 2565 c0 -8 3 -13 5 -10 3 3 15 -3 26 -12 15 -13 14 -10 -3 10
-29 32 -28 31 -28 12z"/>
<path d="M4614 2560 c0 -13 4 -16 10 -10 7 7 7 13 0 20 -6 6 -10 3 -10 -10z"/>
<path d="M4733 2565 c0 -8 3 -13 5 -10 3 3 15 -3 26 -12 15 -13 14 -10 -3 10
-29 32 -28 31 -28 12z"/>
<path d="M4854 2560 c0 -13 4 -16 10 -10 7 7 7 13 0 20 -6 6 -10 3 -10 -10z"/>
<path d="M4936 2567 c3 -10 9 -15 12 -12 3 3 0 11 -7 18 -10 9 -11 8 -5 -6z"/>
<path d="M7814 2569 c-3 -6 -2 -15 3 -20 5 -5 9 -1 9 11 0 23 -2 24 -12 9z"/>
<path d="M7869 2557 c25 -27 43 -39 22 -14 -6 8 -7 18 -3 23 4 5 3 6 -2 2 -5
-4 -16 -2 -25 4 -9 7 -5 0 8 -15z"/>
<path d="M8093 2565 c0 -8 4 -12 9 -9 5 3 6 10 3 15 -9 13 -12 11 -12 -6z"/>
<path d="M1270 2561 c0 -6 4 -12 8 -15 5 -3 9 1 9 9 0 8 -4 15 -9 15 -4 0 -8
-4 -8 -9z"/>
<path d="M1470 2558 c0 -4 4 -8 9 -8 6 0 12 4 15 8 3 5 -1 9 -9 9 -8 0 -15 -4
-15 -9z"/>
<path d="M1976 2553 c-6 -14 -5 -15 5 -6 7 7 10 15 7 18 -3 3 -9 -2 -12 -12z"/>
<path d="M2276 2553 c-6 -14 -5 -15 5 -6 7 7 10 15 7 18 -3 3 -9 -2 -12 -12z"/>
<path d="M3113 2563 c4 -3 1 -13 -6 -22 -11 -14 -10 -14 5 -2 16 12 16 31 1
31 -4 0 -3 -3 0 -7z"/>
<path d="M3880 2560 c0 -5 1 -12 3 -14 1 -2 -7 -14 -18 -27 l-20 -24 20 17
c18 15 32 58 19 58 -2 0 -4 -4 -4 -10z"/>
<path d="M4210 2561 c0 -6 4 -13 10 -16 6 -3 7 1 4 9 -7 18 -14 21 -14 7z"/>
<path d="M5050 2561 c0 -6 4 -13 10 -16 6 -3 7 1 4 9 -7 18 -14 21 -14 7z"/>
<path d="M5099 2553 c-13 -16 -12 -17 4 -4 16 13 21 21 13 21 -2 0 -10 -8 -17
-17z"/>
<path d="M5526 2561 c3 -3 21 -6 39 -6 19 -1 32 1 29 4 -3 3 -21 6 -39 6 -19
1 -32 -1 -29 -4z"/>
<path d="M6125 2559 c-3 -4 2 -6 10 -5 21 3 28 13 10 13 -9 0 -18 -4 -20 -8z"/>
<path d="M6238 2558 c-9 -5 -6 -7 9 -5 12 2 25 6 28 8 8 9 -23 6 -37 -3z"/>
<path d="M6390 2561 c0 -6 4 -13 10 -16 6 -3 7 1 4 9 -7 18 -14 21 -14 7z"/>
<path d="M6476 2561 c7 -8 74 -9 79 -1 2 3 -16 6 -40 6 -24 0 -42 -3 -39 -5z"/>
<path d="M8010 2560 c0 -6 4 -9 9 -6 5 4 12 1 14 -4 3 -6 4 -5 3 2 -3 15 -26
23 -26 8z"/>
<path d="M2230 2556 c0 -2 8 -10 18 -17 15 -13 16 -12 3 4 -13 16 -21 21 -21
13z"/>
<path d="M2869 2543 c-13 -16 -12 -17 4 -4 16 13 21 21 13 21 -2 0 -10 -8 -17
-17z"/>
<path d="M4909 2543 c-13 -16 -12 -17 4 -4 16 13 21 21 13 21 -2 0 -10 -8 -17
-17z"/>
<path d="M7670 2556 c0 -2 8 -10 18 -17 15 -13 16 -12 3 4 -13 16 -21 21 -21
13z"/>
<path d="M1559 2533 c-13 -16 -12 -17 4 -4 9 7 17 15 17 17 0 8 -8 3 -21 -13z"/>
<path d="M1715 2541 c-3 -5 -2 -12 3 -15 5 -3 9 1 9 9 0 17 -3 19 -12 6z"/>
<path d="M1753 2534 c16 -20 52 -30 41 -12 -4 5 -9 7 -12 4 -3 -3 -15 2 -26
11 -21 18 -21 18 -3 -3z"/>
<path d="M2353 2534 c16 -20 52 -30 41 -12 -4 5 -9 7 -12 4 -3 -3 -15 2 -26
11 -21 18 -21 18 -3 -3z"/>
<path d="M2951 2533 c7 -12 15 -20 18 -17 3 2 -3 12 -13 22 -17 16 -18 16 -5
-5z"/>
<path d="M3191 2533 c7 -12 15 -20 18 -17 3 2 -3 12 -13 22 -17 16 -18 16 -5
-5z"/>
<path d="M3431 2533 c7 -12 15 -20 18 -17 3 2 -3 12 -13 22 -17 16 -18 16 -5
-5z"/>
<path d="M3553 2534 c16 -20 52 -30 41 -12 -4 5 -9 7 -12 4 -3 -3 -15 2 -26
11 -21 18 -21 18 -3 -3z"/>
<path d="M3793 2534 c16 -20 52 -30 41 -12 -4 5 -9 7 -12 4 -3 -3 -15 2 -26
11 -21 18 -21 18 -3 -3z"/>
<path d="M4035 2530 c10 -11 20 -20 23 -20 3 0 -3 9 -13 20 -10 11 -20 20 -23
20 -3 0 3 -9 13 -20z"/>
<path d="M4080 2535 c-7 -9 -11 -17 -9 -20 3 -2 10 5 17 15 14 24 10 26 -8 5z"/>
<path d="M4320 2535 c-7 -9 -11 -17 -9 -20 3 -2 10 5 17 15 14 24 10 26 -8 5z"/>
<path d="M4353 2543 c4 -3 -1 -16 -10 -27 -18 -21 -18 -21 4 -2 20 16 23 36 6
36 -4 0 -3 -3 0 -7z"/>
<path d="M5195 2542 c3 -3 -3 -15 -12 -26 -14 -15 -14 -18 -2 -8 9 6 18 11 20
9 2 -1 3 0 2 2 -2 2 2 9 7 16 7 8 5 12 -5 12 -8 0 -13 -3 -10 -5z"/>
<path d="M5235 2542 c3 -3 -1 -12 -7 -21 -8 -10 -4 -9 10 3 26 23 26 23 7 23
-8 0 -13 -3 -10 -5z"/>
<path d="M5400 2535 c-7 -9 -11 -17 -9 -20 3 -2 10 5 17 15 14 24 10 26 -8 5z"/>
<path d="M5714 2519 c0 -15 3 -26 8 -23 5 3 6 10 2 15 -3 5 -1 16 5 23 8 9 7
13 -2 13 -8 0 -13 -12 -13 -28z"/>
<path d="M5990 2535 c5 -7 6 -16 2 -21 -4 -5 -3 -6 2 -2 5 4 16 2 25 -4 12
-10 12 -7 -2 8 -9 11 -15 23 -12 26 3 2 -2 5 -10 5 -10 0 -12 -4 -5 -12z"/>
<path d="M6032 2531 c7 -9 13 -18 15 -20 1 -2 1 5 0 16 0 11 -7 20 -14 20 -10
0 -10 -4 -1 -16z"/>
<path d="M6437 2528 c19 -21 31 -25 14 -5 -6 8 -9 16 -6 19 3 2 -2 5 -10 5
-13 0 -13 -3 2 -19z"/>
<path d="M6595 2542 c3 -3 -1 -12 -7 -21 -8 -10 -4 -9 10 3 26 23 26 23 7 23
-8 0 -13 -3 -10 -5z"/>
<path d="M6677 2528 c19 -21 31 -25 14 -5 -6 8 -9 16 -6 19 3 2 -2 5 -10 5
-13 0 -13 -3 2 -19z"/>
<path d="M6710 2536 c7 -7 13 -7 20 0 6 6 3 10 -10 10 -13 0 -16 -4 -10 -10z"/>
<path d="M6790 2535 c5 -7 6 -16 2 -21 -4 -5 -3 -6 2 -2 5 4 16 2 25 -4 12
-10 12 -7 -2 8 -9 11 -15 23 -12 26 3 2 -2 5 -10 5 -10 0 -12 -4 -5 -12z"/>
<path d="M6832 2531 c7 -9 13 -18 15 -20 1 -2 1 5 0 16 0 11 -7 20 -14 20 -10
0 -10 -4 -1 -16z"/>
<path d="M6870 2536 c7 -7 13 -7 20 0 6 6 3 10 -10 10 -13 0 -16 -4 -10 -10z"/>
<path d="M6915 2542 c3 -3 -1 -12 -7 -21 -8 -10 -4 -9 10 3 26 23 26 23 7 23
-8 0 -13 -3 -10 -5z"/>
<path d="M6955 2543 c3 -3 -3 -16 -12 -27 -14 -15 -14 -18 -2 -8 9 6 18 9 22
6 3 -3 4 1 3 10 -1 8 -5 18 -9 21 -4 3 -5 2 -2 -2z"/>
<path d="M6997 2528 c19 -21 31 -25 14 -5 -6 8 -9 16 -6 19 3 2 -2 5 -10 5
-13 0 -13 -3 2 -19z"/>
<path d="M7395 2542 c3 -3 -1 -12 -7 -21 -8 -10 -4 -9 10 3 26 23 26 23 7 23
-8 0 -13 -3 -10 -5z"/>
<path d="M7435 2542 c3 -3 -3 -15 -12 -26 -14 -15 -14 -18 -2 -8 9 6 18 11 20
9 2 -1 3 0 2 2 -2 2 2 9 7 16 7 8 5 12 -5 12 -8 0 -13 -3 -10 -5z"/>
<path d="M7473 2527 c-1 -11 -1 -18 0 -16 2 2 8 11 15 20 9 12 9 16 -1 16 -7
0 -14 -9 -14 -20z"/>
<path d="M2210 2536 c0 -2 8 -10 18 -17 15 -13 16 -12 3 4 -13 16 -21 21 -21
13z"/>
<path d="M2284 2518 c-12 -14 -13 -18 -3 -10 9 6 18 10 21 7 2 -3 5 2 5 10 0
19 0 19 -23 -7z"/>
<path d="M2649 2523 c-13 -16 -12 -17 4 -4 9 7 17 15 17 17 0 8 -8 3 -21 -13z"/>
<path d="M2835 2530 c-4 -6 -10 -8 -14 -6 -4 3 -8 -1 -8 -9 0 -13 4 -12 19 2
18 16 22 23 14 23 -3 0 -8 -5 -11 -10z"/>
<path d="M2894 2529 c-3 -6 -2 -15 3 -20 5 -5 9 -1 9 11 0 23 -2 24 -12 9z"/>
<path d="M3075 2530 c-4 -6 -10 -8 -14 -6 -4 3 -8 -1 -8 -9 0 -13 4 -12 19 2
18 16 22 23 14 23 -3 0 -8 -5 -11 -10z"/>
<path d="M3129 2523 c-13 -16 -12 -17 4 -4 9 7 17 15 17 17 0 8 -8 3 -21 -13z"/>
<path d="M3315 2530 c-4 -6 -10 -8 -14 -6 -4 3 -8 -1 -8 -9 0 -13 4 -12 19 2
18 16 22 23 14 23 -3 0 -8 -5 -11 -10z"/>
<path d="M3369 2523 c-13 -16 -12 -17 4 -4 9 7 17 15 17 17 0 8 -8 3 -21 -13z"/>
<path d="M3964 2522 c23 -26 23 -26 23 -7 0 8 -3 13 -5 10 -3 -3 -12 1 -21 7
-10 8 -9 4 3 -10z"/>
<path d="M4204 2522 c23 -26 23 -26 23 -7 0 8 -3 13 -5 10 -3 -3 -12 1 -21 7
-10 8 -9 4 3 -10z"/>
<path d="M4444 2522 c23 -26 23 -26 23 -7 0 8 -3 13 -5 10 -3 -3 -12 1 -21 7
-10 8 -9 4 3 -10z"/>
<path d="M4684 2518 c-12 -14 -13 -18 -3 -10 9 6 18 10 21 7 2 -3 5 2 5 10 0
19 0 19 -23 -7z"/>
<path d="M4742 2524 c10 -10 20 -16 22 -13 3 3 -5 11 -17 18 -21 13 -21 12 -5
-5z"/>
<path d="M4924 2518 c-12 -14 -13 -18 -3 -10 9 6 18 10 21 7 2 -3 5 2 5 10 0
19 0 19 -23 -7z"/>
<path d="M4973 2525 c0 -8 3 -13 5 -10 3 3 12 -1 21 -7 10 -8 9 -4 -3 10 -23
26 -23 26 -23 7z"/>
<path d="M5130 2536 c0 -2 8 -10 18 -17 15 -13 16 -12 3 4 -13 16 -21 21 -21
13z"/>
<path d="M5463 2524 c9 -11 14 -23 11 -26 -3 -3 -1 -8 4 -12 18 -11 8 25 -12
41 -21 18 -21 18 -3 -3z"/>
<path d="M5540 2526 c8 -10 15 -25 16 -33 4 -24 13 -27 11 -4 -1 12 -10 30
-21 39 -20 16 -20 16 -6 -2z"/>
<path d="M5809 2523 c-13 -16 -12 -17 4 -4 16 13 21 21 13 21 -2 0 -10 -8 -17
-17z"/>
<path d="M6125 2520 c-10 -11 -15 -20 -10 -20 4 0 1 -8 -6 -17 -13 -16 -12
-17 4 -4 9 8 15 16 12 19 -3 3 2 14 12 24 9 10 14 18 11 18 -3 0 -13 -9 -23
-20z"/>
<path d="M6185 2520 c10 -11 20 -20 23 -20 3 0 -3 9 -13 20 -10 11 -20 20 -23
20 -3 0 3 -9 13 -20z"/>
<path d="M6330 2536 c0 -2 8 -10 18 -17 15 -13 16 -12 3 4 -13 16 -21 21 -21
13z"/>
<path d="M6529 2523 c-13 -16 -12 -17 4 -4 16 13 21 21 13 21 -2 0 -10 -8 -17
-17z"/>
<path d="M7140 2526 c8 -10 15 -25 16 -33 4 -24 13 -27 11 -4 -1 12 -10 30
-21 39 -20 16 -20 16 -6 -2z"/>
<path d="M7290 2536 c0 -2 8 -10 18 -17 15 -13 16 -12 3 4 -13 16 -21 21 -21
13z"/>
<path d="M7656 2527 c3 -10 9 -15 12 -12 3 3 0 11 -7 18 -10 9 -11 8 -5 -6z"/>
<path d="M7730 2536 c0 -2 8 -10 18 -17 15 -13 16 -12 3 4 -13 16 -21 21 -21
13z"/>
<path d="M1590 2518 c0 -4 4 -8 9 -8 6 0 12 4 15 8 3 5 -1 9 -9 9 -8 0 -15 -4
-15 -9z"/>
<path d="M1961 2516 c-9 -11 -9 -16 1 -22 7 -4 10 -4 6 1 -4 4 -3 14 3 22 6 7
9 13 6 13 -2 0 -10 -6 -16 -14z"/>
<path d="M2114 2508 c-19 -23 -19 -23 2 -5 11 9 24 14 29 10 4 -5 5 -2 1 5 -9
16 -10 16 -32 -10z"/>
<path d="M2189 2517 c6 -8 9 -16 6 -19 -3 -2 2 -5 10 -5 13 0 13 3 -2 19 -19
21 -31 25 -14 5z"/>
<path d="M2511 2527 c2 -1 13 -9 24 -17 19 -14 19 -14 6 3 -7 9 -18 17 -24 17
-6 0 -8 -1 -6 -3z"/>
<path d="M2673 2512 c-8 -14 -8 -19 1 -19 7 0 13 9 13 19 1 10 1 18 0 18 -1 0
-7 -8 -14 -18z"/>
<path d="M2713 2524 c3 -3 12 -6 20 -8 8 -1 23 -8 33 -16 18 -14 18 -14 2 6
-9 11 -27 20 -39 21 -12 1 -19 0 -16 -3z"/>
<path d="M2920 2526 c0 -2 8 -10 18 -17 15 -13 16 -12 3 4 -13 16 -21 21 -21
13z"/>
<path d="M3151 2507 c-13 -21 -12 -21 5 -5 10 10 16 20 13 22 -3 3 -11 -5 -18
-17z"/>
<path d="M3400 2526 c0 -2 8 -10 18 -17 15 -13 16 -12 3 4 -13 16 -21 21 -21
13z"/>
<path d="M3711 2527 c2 -2 11 -8 20 -15 12 -9 16 -9 16 1 0 7 -9 14 -20 14
-11 1 -18 1 -16 0z"/>
<path d="M4589 2517 c6 -8 9 -16 6 -19 -3 -2 2 -5 10 -5 13 0 13 3 -2 19 -19
21 -31 25 -14 5z"/>
<path d="M4829 2517 c6 -8 9 -16 6 -19 -3 -2 2 -5 10 -5 13 0 13 3 -2 19 -19
21 -31 25 -14 5z"/>
<path d="M5077 2512 c-15 -16 -15 -19 -2 -19 8 0 13 3 10 5 -3 3 0 11 6 19 17
20 5 16 -14 -5z"/>
<path d="M5419 2513 c-13 -16 -12 -17 4 -4 9 7 17 15 17 17 0 8 -8 3 -21 -13z"/>
<path d="M5751 2527 c2 -1 13 -9 24 -17 19 -14 19 -14 6 3 -7 9 -18 17 -24 17
-6 0 -8 -1 -6 -3z"/>
<path d="M6379 2513 c-13 -16 -12 -17 4 -4 14 11 20 11 35 0 15 -13 16 -12 3
4 -7 9 -17 17 -21 17 -4 0 -14 -8 -21 -17z"/>
<path d="M6631 2527 c2 -1 13 -9 24 -17 19 -14 19 -14 6 3 -7 9 -18 17 -24 17
-6 0 -8 -1 -6 -3z"/>
<path d="M7499 2513 c-13 -16 -12 -17 4 -4 14 11 20 11 35 0 15 -13 16 -12 3
4 -7 9 -17 17 -21 17 -4 0 -14 -8 -21 -17z"/>
<path d="M7610 2519 c0 -5 5 -7 10 -4 6 3 10 8 10 11 0 2 -4 4 -10 4 -5 0 -10
-5 -10 -11z"/>
<path d="M2030 2516 c0 -2 8 -10 18 -17 15 -13 16 -12 3 4 -13 16 -21 21 -21
13z"/>
<path d="M4509 2503 c-13 -16 -12 -17 4 -4 9 7 17 15 17 17 0 8 -8 3 -21 -13z"/>
<path d="M6549 2503 c-13 -16 -12 -17 4 -4 9 7 17 15 17 17 0 8 -8 3 -21 -13z"/>
<path d="M6869 2503 c-13 -16 -12 -17 4 -4 16 13 21 21 13 21 -2 0 -10 -8 -17
-17z"/>
<path d="M1904 2502 c4 -3 14 -7 22 -8 9 -1 13 0 10 4 -4 3 -14 7 -22 8 -9 1
-13 0 -10 -4z"/>
<path d="M2240 2500 c-9 -6 -10 -10 -3 -10 6 0 15 5 18 10 8 12 4 12 -15 0z"/>
<path d="M2508 2499 c6 -9 8 -20 4 -25 -4 -5 -3 -6 2 -2 5 4 14 3 21 -2 8 -7
12 -5 12 5 0 8 -3 13 -5 10 -3 -3 -15 3 -26 12 -15 14 -18 14 -8 2z"/>
<path d="M2627 2499 c7 -7 15 -10 18 -7 3 3 -2 9 -12 12 -14 6 -15 5 -6 -5z"/>
<path d="M2839 2493 c-13 -16 -12 -17 4 -4 16 13 21 21 13 21 -2 0 -10 -8 -17
-17z"/>
<path d="M3107 2499 c7 -7 15 -10 18 -7 3 3 -2 9 -12 12 -14 6 -15 5 -6 -5z"/>
<path d="M3347 2499 c7 -7 15 -10 18 -7 3 3 -2 9 -12 12 -14 6 -15 5 -6 -5z"/>
<path d="M3700 2506 c0 -2 8 -10 18 -17 15 -13 16 -12 3 4 -13 16 -21 21 -21
13z"/>
<path d="M3948 2499 c6 -9 8 -20 4 -25 -4 -5 -3 -6 2 -2 5 4 14 3 21 -2 8 -7
12 -5 12 5 0 8 -3 13 -5 10 -3 -3 -15 3 -26 12 -15 14 -18 14 -8 2z"/>
<path d="M4180 2506 c0 -2 8 -10 18 -17 15 -13 16 -12 3 4 -13 16 -21 21 -21
13z"/>
<path d="M4429 2498 c7 -9 9 -23 5 -30 -6 -10 -4 -11 7 0 11 10 10 15 -6 30
-17 15 -18 15 -6 0z"/>
<path d="M4640 2500 c-9 -6 -10 -10 -3 -10 6 0 15 5 18 10 8 12 4 12 -15 0z"/>
<path d="M5027 2499 c7 -7 15 -10 18 -7 3 3 -2 9 -12 12 -14 6 -15 5 -6 -5z"/>
<path d="M5106 2502 c-2 -4 4 -8 14 -8 10 0 16 4 14 8 -3 4 -9 8 -14 8 -5 0
-11 -4 -14 -8z"/>
<path d="M5344 2502 c4 -3 14 -7 22 -8 9 -1 13 0 10 4 -4 3 -14 7 -22 8 -9 1
-13 0 -10 -4z"/>
<path d="M5504 2502 c4 -3 14 -7 22 -8 9 -1 13 0 10 4 -4 3 -14 7 -22 8 -9 1
-13 0 -10 -4z"/>
<path d="M5596 2493 c-6 -14 -5 -15 5 -6 7 7 10 15 7 18 -3 3 -9 -2 -12 -12z"/>
<path d="M5664 2502 c4 -3 14 -7 22 -8 9 -1 13 0 10 4 -4 3 -14 7 -22 8 -9 1
-13 0 -10 -4z"/>
<path d="M5825 2499 c-3 -4 2 -6 10 -5 21 3 28 13 10 13 -9 0 -18 -4 -20 -8z"/>
<path d="M6065 2499 c-3 -4 2 -6 10 -5 21 3 28 13 10 13 -9 0 -18 -4 -20 -8z"/>
<path d="M6146 2502 c-3 -5 1 -9 9 -9 8 0 15 4 15 9 0 4 -4 8 -9 8 -6 0 -12
-4 -15 -8z"/>
<path d="M6230 2496 c7 -7 13 -7 20 0 6 6 3 10 -10 10 -13 0 -16 -4 -10 -10z"/>
<path d="M6304 2502 c4 -3 14 -7 22 -8 9 -1 13 0 10 4 -4 3 -14 7 -22 8 -9 1
-13 0 -10 -4z"/>
<path d="M7110 2502 c0 -5 7 -9 15 -9 8 0 12 4 9 9 -3 4 -9 8 -15 8 -5 0 -9
-4 -9 -8z"/>
<path d="M7190 2496 c7 -7 13 -7 20 0 6 6 3 10 -10 10 -13 0 -16 -4 -10 -10z"/>
<path d="M7264 2502 c4 -3 14 -7 22 -8 9 -1 13 0 10 4 -4 3 -14 7 -22 8 -9 1
-13 0 -10 -4z"/>
<path d="M2016 2487 c3 -10 9 -15 12 -12 3 3 0 11 -7 18 -10 9 -11 8 -5 -6z"/>
<path d="M2137 2493 c-10 -9 -9 -23 1 -23 5 0 9 7 9 15 0 17 -1 18 -10 8z"/>
<path d="M2299 2498 c-5 -18 -6 -38 -1 -34 7 8 12 36 6 36 -2 0 -4 -1 -5 -2z"/>
<path d="M2573 2485 c0 -8 3 -13 5 -10 3 3 15 -3 26 -12 15 -14 18 -14 8 -2
-6 9 -8 20 -4 25 4 5 3 6 -2 2 -5 -4 -14 -3 -21 2 -8 7 -12 5 -12 -5z"/>
<path d="M2979 2498 c-5 -18 -6 -38 -1 -34 7 8 12 36 6 36 -2 0 -4 -1 -5 -2z"/>
<path d="M3459 2498 c-5 -18 -6 -38 -1 -34 7 8 12 36 6 36 -2 0 -4 -1 -5 -2z"/>
<path d="M4054 2486 c1 -8 5 -18 8 -22 4 -3 5 1 4 10 -1 8 -5 18 -8 22 -4 3
-5 -1 -4 -10z"/>
<path d="M4539 2498 c-5 -18 -6 -38 -1 -34 7 8 12 36 6 36 -2 0 -4 -1 -5 -2z"/>
<path d="M4766 2485 c-11 -8 -15 -15 -9 -15 6 0 16 7 23 15 16 19 11 19 -14 0z"/>
<path d="M5215 2489 c-4 -6 -5 -12 -2 -15 2 -3 7 2 10 11 7 17 1 20 -8 4z"/>
<path d="M5250 2496 c0 -2 8 -10 18 -17 15 -13 16 -12 3 4 -13 16 -21 21 -21
13z"/>
<path d="M5929 2483 c-13 -16 -12 -17 4 -4 9 7 17 15 17 17 0 8 -8 3 -21 -13z"/>
<path d="M6456 2487 c3 -10 9 -15 12 -12 3 3 0 11 -7 18 -10 9 -11 8 -5 -6z"/>
<path d="M6569 2483 c-13 -16 -12 -17 4 -4 16 13 21 21 13 21 -2 0 -10 -8 -17
-17z"/>
<path d="M6616 2487 c3 -10 9 -15 12 -12 3 3 0 11 -7 18 -10 9 -11 8 -5 -6z"/>
<path d="M6694 2480 c0 -13 4 -16 10 -10 7 7 7 13 0 20 -6 6 -10 3 -10 -10z"/>
<path d="M6729 2483 c-13 -16 -12 -17 4 -4 16 13 21 21 13 21 -2 0 -10 -8 -17
-17z"/>
<path d="M6776 2487 c3 -10 9 -15 12 -12 3 3 0 11 -7 18 -10 9 -11 8 -5 -6z"/>
<path d="M6975 2489 c-4 -6 -5 -12 -2 -15 2 -3 7 2 10 11 7 17 1 20 -8 4z"/>
<path d="M7010 2496 c0 -2 8 -10 18 -17 15 -13 16 -12 3 4 -13 16 -21 21 -21
13z"/>
<path d="M2377 2471 c-10 -12 -9 -13 3 -6 8 5 34 10 57 10 23 1 45 3 48 6 3 3
-18 5 -46 5 -31 -1 -55 -6 -62 -15z"/>
<path d="M2810 2481 c0 -6 4 -13 10 -16 6 -3 7 1 4 9 -7 18 -14 21 -14 7z"/>
<path d="M2875 2481 c-3 -5 -2 -12 3 -15 5 -3 9 1 9 9 0 17 -3 19 -12 6z"/>
<path d="M3053 2476 c-3 -6 -2 -8 2 -3 5 4 18 -1 29 -10 15 -14 18 -14 8 -2
-6 9 -10 18 -7 21 3 2 -2 5 -10 5 -9 0 -19 -5 -22 -11z"/>
<path d="M3290 2481 c0 -6 4 -13 10 -16 6 -3 7 1 4 9 -7 18 -14 21 -14 7z"/>
<path d="M3671 2487 c2 -1 13 -9 24 -17 19 -14 19 -14 6 3 -7 9 -18 17 -24 17
-6 0 -8 -1 -6 -3z"/>
<path d="M3736 2473 c-6 -14 -5 -15 5 -6 7 7 10 15 7 18 -3 3 -9 -2 -12 -12z"/>
<path d="M4151 2487 c2 -1 13 -9 24 -17 19 -14 19 -14 6 3 -7 9 -18 17 -24 17
-6 0 -8 -1 -6 -3z"/>
<path d="M4216 2473 c-6 -14 -5 -15 5 -6 7 7 10 15 7 18 -3 3 -9 -2 -12 -12z"/>
<path d="M4673 2471 c1 -12 10 -30 21 -39 20 -16 20 -16 6 2 -8 10 -15 25 -16
33 -4 24 -13 27 -11 4z"/>
<path d="M5299 2473 c-13 -17 -13 -17 6 -3 11 8 22 16 24 17 2 2 0 3 -6 3 -6
0 -17 -8 -24 -17z"/>
<path d="M5619 2473 c-13 -17 -13 -17 6 -3 11 8 22 16 24 17 2 2 0 3 -6 3 -6
0 -17 -8 -24 -17z"/>
<path d="M5730 2481 c0 -6 4 -13 10 -16 6 -3 7 1 4 9 -7 18 -14 21 -14 7z"/>
<path d="M5870 2479 c0 -5 5 -7 10 -4 6 3 10 8 10 11 0 2 -4 4 -10 4 -5 0 -10
-5 -10 -11z"/>
<path d="M6179 2473 c-12 -16 -12 -17 2 -6 9 7 19 10 22 6 4 -3 7 -1 7 5 0 17
-16 15 -31 -5z"/>
<path d="M6259 2473 c-13 -17 -13 -17 6 -3 11 8 22 16 24 17 2 2 0 3 -6 3 -6
0 -17 -8 -24 -17z"/>
<path d="M7059 2473 c-13 -17 -13 -17 6 -3 11 8 22 16 24 17 2 2 0 3 -6 3 -6
0 -17 -8 -24 -17z"/>
<path d="M7219 2473 c-13 -17 -13 -17 6 -3 11 8 22 16 24 17 2 2 0 3 -6 3 -6
0 -17 -8 -24 -17z"/>
<path d="M3235 2470 c-3 -5 -3 -10 1 -10 4 0 -1 -10 -12 -22 -19 -23 -19 -23
2 -5 11 9 21 24 21 32 0 18 -3 19 -12 5z"/>
<path d="M4789 2463 c-13 -16 -12 -17 4 -4 9 7 17 15 17 17 0 8 -8 3 -21 -13z"/>
<path d="M5230 2476 c0 -2 8 -10 18 -17 15 -13 16 -12 3 4 -13 16 -21 21 -21
13z"/>
<path d="M6429 2463 c-13 -16 -12 -17 4 -4 16 13 21 21 13 21 -2 0 -10 -8 -17
-17z"/>
<path d="M6589 2463 c-13 -16 -12 -17 4 -4 16 13 21 21 13 21 -2 0 -10 -8 -17
-17z"/>
<path d="M6749 2463 c-13 -16 -12 -17 4 -4 16 13 21 21 13 21 -2 0 -10 -8 -17
-17z"/>
<path d="M6990 2476 c0 -2 8 -10 18 -17 15 -13 16 -12 3 4 -13 16 -21 21 -21
13z"/>
<path d="M2640 2460 c-9 -6 -10 -10 -3 -10 6 0 15 5 18 10 8 12 4 12 -15 0z"/>
<path d="M2673 2447 c-1 -11 -1 -18 0 -16 2 2 8 11 15 20 9 12 9 16 -1 16 -7
0 -14 -9 -14 -20z"/>
<path d="M2715 2462 c3 -3 -3 -15 -12 -26 -13 -15 -10 -14 10 3 32 29 31 28
12 28 -8 0 -13 -3 -10 -5z"/>
<path d="M2917 2448 c19 -21 31 -25 14 -5 -6 8 -9 16 -6 19 3 2 -2 5 -10 5
-13 0 -13 -3 2 -19z"/>
<path d="M2999 2453 c-13 -16 -12 -17 4 -4 16 13 21 21 13 21 -2 0 -10 -8 -17
-17z"/>
<path d="M3397 2448 c19 -21 31 -25 14 -5 -6 8 -9 16 -6 19 3 2 -2 5 -10 5
-13 0 -13 -3 2 -19z"/>
<path d="M3479 2453 c-13 -16 -12 -17 4 -4 16 13 21 21 13 21 -2 0 -10 -8 -17
-17z"/>
<path d="M3637 2448 c19 -21 31 -25 14 -5 -6 8 -9 16 -6 19 3 2 -2 5 -10 5
-13 0 -13 -3 2 -19z"/>
<path d="M3667 2459 c7 -9 11 -18 8 -21 -3 -3 3 -11 12 -19 16 -12 17 -12 6 2
-7 9 -11 18 -8 21 3 3 -3 11 -12 19 -16 12 -17 12 -6 -2z"/>
<path d="M3873 2447 c-1 -11 -1 -18 0 -16 2 2 8 11 15 20 9 12 9 16 -1 16 -7
0 -14 -9 -14 -20z"/>
<path d="M3910 2466 c0 -2 7 -7 16 -10 8 -3 12 -2 9 4 -6 10 -25 14 -25 6z"/>
<path d="M4113 2463 c4 -3 1 -13 -6 -22 -11 -14 -10 -14 5 -2 16 12 16 31 1
31 -4 0 -3 -3 0 -7z"/>
<path d="M4149 2457 c6 -8 7 -18 3 -22 -4 -5 -1 -5 6 -1 10 6 10 11 1 22 -6 8
-14 14 -16 14 -3 0 0 -6 6 -13z"/>
<path d="M4390 2466 c0 -2 7 -7 16 -10 8 -3 12 -2 9 4 -6 10 -25 14 -25 6z"/>
<path d="M4704 2462 c4 -3 14 -7 22 -8 9 -1 13 0 10 4 -4 3 -14 7 -22 8 -9 1
-13 0 -10 -4z"/>
<path d="M5320 2455 c-7 -8 -16 -13 -20 -10 -5 3 -11 2 -14 -3 -10 -17 24 -8
41 10 9 10 14 18 11 18 -3 0 -11 -7 -18 -15z"/>
<path d="M5474 2448 l-19 -23 23 19 c12 11 22 21 22 23 0 8 -8 2 -26 -19z"/>
<path d="M6279 2453 c-13 -16 -12 -17 4 -4 16 13 21 21 13 21 -2 0 -10 -8 -17
-17z"/>
<path d="M6386 2462 c-3 -5 1 -9 9 -9 8 0 12 4 9 9 -3 4 -7 8 -9 8 -2 0 -6 -4
-9 -8z"/>
<path d="M2455 2449 c-4 -6 -5 -12 -2 -15 2 -3 7 2 10 11 7 17 1 20 -8 4z"/>
<path d="M2513 2445 c0 -8 4 -12 9 -9 5 3 6 10 3 15 -9 13 -12 11 -12 -6z"/>
<path d="M2570 2456 c0 -2 8 -10 18 -17 15 -13 16 -12 3 4 -13 16 -21 21 -21
13z"/>
<path d="M2857 2450 c7 -8 20 -15 29 -16 9 -1 13 1 9 4 -4 4 -10 7 -13 7 -4 0
-14 4 -22 9 -12 7 -13 6 -3 -4z"/>
<path d="M3053 2445 c0 -8 3 -13 5 -10 3 3 12 -1 21 -7 10 -8 9 -4 -3 10 -23
26 -23 26 -23 7z"/>
<path d="M3169 2444 c-11 -14 -24 -52 -14 -42 2 1 3 6 2 9 -1 4 7 16 17 28 11
12 17 21 14 21 -3 0 -12 -7 -19 -16z"/>
<path d="M3339 2447 c8 -9 16 -15 19 -12 3 3 12 -1 21 -8 14 -11 14 -10 2 6
-8 9 -16 15 -19 12 -3 -3 -12 1 -21 8 -14 11 -14 10 -2 -6z"/>
<path d="M3555 2450 c-4 -6 -10 -8 -14 -6 -4 3 -8 -1 -8 -9 0 -13 4 -12 19 2
18 16 22 23 14 23 -3 0 -8 -5 -11 -10z"/>
<path d="M3775 2450 c-4 -6 -12 -7 -18 -4 -7 4 -9 4 -5 -1 4 -4 3 -13 -2 -20
-7 -8 -5 -12 5 -12 8 0 13 3 10 5 -3 3 2 14 12 24 9 10 13 18 10 18 -3 0 -9
-5 -12 -10z"/>
<path d="M4255 2450 c-4 -6 -12 -7 -18 -4 -7 4 -9 4 -5 -1 4 -4 3 -13 -2 -20
-7 -8 -5 -12 5 -12 8 0 13 3 10 5 -3 3 2 14 12 24 9 10 13 18 10 18 -3 0 -9
-5 -12 -10z"/>
<path d="M4330 2456 c0 -2 8 -10 18 -17 15 -13 16 -12 3 4 -13 16 -21 21 -21
13z"/>
<path d="M4444 2438 c-12 -14 -13 -18 -3 -10 9 6 18 10 21 7 2 -3 5 2 5 10 0
19 0 19 -23 -7z"/>
<path d="M4570 2456 c0 -2 8 -10 18 -17 15 -13 16 -12 3 4 -13 16 -21 21 -21
13z"/>
<path d="M4844 2438 l-19 -23 23 19 c12 11 22 21 22 23 0 8 -8 2 -26 -19z"/>
<path d="M5213 2445 c0 -8 3 -13 5 -10 3 3 12 -1 21 -7 10 -8 9 -4 -3 10 -23
26 -23 26 -23 7z"/>
<path d="M5395 2450 c-4 -6 -10 -8 -14 -6 -4 3 -8 -1 -8 -9 0 -13 4 -12 19 2
18 16 22 23 14 23 -3 0 -8 -5 -11 -10z"/>
<path d="M5555 2450 c-4 -6 -10 -8 -14 -6 -4 3 -8 -1 -8 -9 0 -13 4 -12 19 2
18 16 22 23 14 23 -3 0 -8 -5 -11 -10z"/>
<path d="M6355 2450 c-4 -6 -10 -8 -14 -6 -4 3 -8 -1 -8 -9 0 -10 4 -12 12 -5
7 5 14 8 17 5 2 -3 5 2 5 10 0 18 -3 19 -12 5z"/>
<path d="M6444 2438 c-12 -14 -13 -18 -3 -10 9 6 18 10 21 7 2 -3 5 2 5 10 0
19 0 19 -23 -7z"/>
<path d="M6555 2449 c-4 -6 -5 -12 -2 -15 2 -3 7 2 10 11 7 17 1 20 -8 4z"/>
<path d="M6715 2450 c-4 -6 -10 -8 -14 -5 -5 2 -17 -5 -27 -18 -19 -22 -19
-22 2 -4 11 9 23 15 26 12 3 -3 11 1 18 10 7 8 10 15 7 15 -3 0 -9 -5 -12 -10z"/>
<path d="M6766 2445 c-18 -14 -18 -14 1 -12 11 0 20 7 20 14 0 7 -1 13 -1 13
-1 0 -9 -7 -20 -15z"/>
<path d="M6982 2444 c10 -10 20 -16 22 -13 3 3 -5 11 -17 18 -21 13 -21 12 -5
-5z"/>
<path d="M7155 2450 c-4 -6 -10 -8 -14 -6 -4 3 -8 -1 -8 -9 0 -13 4 -12 19 2
18 16 22 23 14 23 -3 0 -8 -5 -11 -10z"/>
<path d="M2739 2433 c-13 -16 -12 -17 4 -4 9 7 17 15 17 17 0 8 -8 3 -21 -13z"/>
<path d="M2829 2437 c6 -8 9 -16 6 -19 -3 -2 2 -5 10 -5 13 0 13 3 -2 19 -19
21 -31 25 -14 5z"/>
<path d="M3309 2437 c6 -8 9 -16 6 -19 -3 -2 2 -5 10 -5 13 0 13 3 -2 19 -19
21 -31 25 -14 5z"/>
<path d="M3793 2432 c-8 -14 -8 -19 1 -19 7 0 13 9 13 19 1 10 1 18 0 18 -1 0
-7 -8 -14 -18z"/>
<path d="M3899 2433 c-13 -16 -12 -17 4 -4 16 13 21 21 13 21 -2 0 -10 -8 -17
-17z"/>
<path d="M3959 2433 c-12 -16 -12 -17 2 -6 9 7 20 9 24 5 5 -4 5 -1 1 6 -9 16
-11 15 -27 -5z"/>
<path d="M4013 2433 c0 -10 4 -10 16 -1 9 7 18 13 20 15 2 1 -5 1 -16 0 -11 0
-20 -7 -20 -14z"/>
<path d="M4197 2432 c-15 -16 -15 -19 -2 -19 8 0 13 3 10 5 -3 3 0 11 6 19 17
20 5 16 -14 -5z"/>
<path d="M4280 2446 c0 -2 8 -10 18 -17 15 -13 16 -12 3 4 -13 16 -21 21 -21
13z"/>
<path d="M4379 2433 c-13 -16 -12 -17 4 -4 9 7 17 15 17 17 0 8 -8 3 -21 -13z"/>
<path d="M4550 2443 c0 -6 8 -17 18 -24 16 -13 16 -13 2 6 -8 11 -16 22 -17
24 -2 2 -3 0 -3 -6z"/>
<path d="M4886 2438 c4 -5 9 -7 12 -4 3 3 15 -2 26 -11 21 -18 21 -18 3 3 -16
20 -52 30 -41 12z"/>
<path d="M4993 2426 l-18 -21 24 20 c13 11 25 19 28 17 3 -2 7 -2 9 1 2 2 -3
4 -11 4 -8 0 -23 -10 -32 -21z"/>
<path d="M6833 2426 c-18 -21 -18 -21 2 -5 24 19 65 19 91 0 18 -14 18 -14 1
4 -24 27 -72 27 -94 1z"/>
<path d="M7070 2439 c0 -5 6 -8 13 -6 6 1 11 -5 9 -13 -2 -8 0 -11 4 -7 15 15
11 33 -7 34 -11 1 -19 -2 -19 -8z"/>
<path d="M6590 2436 c0 -2 8 -10 18 -17 15 -13 16 -12 3 4 -13 16 -21 21 -21
13z"/>
<path d="M2991 2413 c7 -12 15 -20 18 -17 3 2 -3 12 -13 22 -17 16 -18 16 -5
-5z"/>
<path d="M3559 2413 c-13 -16 -12 -17 4 -4 16 13 21 21 13 21 -2 0 -10 -8 -17
-17z"/>
<path d="M3826 2422 c-2 -4 4 -8 14 -8 10 0 16 4 14 8 -3 4 -9 8 -14 8 -5 0
-11 -4 -14 -8z"/>
<path d="M3922 2418 c-10 -13 -10 -94 1 -104 3 -3 4 16 2 43 -1 26 2 54 7 61
6 6 8 12 5 12 -2 0 -9 -6 -15 -12z"/>
<path d="M4040 2415 c-7 -8 -16 -13 -19 -10 -4 2 -8 -3 -8 -11 0 -11 6 -9 24
8 13 12 23 23 23 25 0 7 -8 2 -20 -12z"/>
<path d="M4399 2413 c-13 -16 -12 -17 4 -4 16 13 21 21 13 21 -2 0 -10 -8 -17
-17z"/>
<path d="M4799 2413 c-13 -16 -12 -17 4 -4 16 13 21 21 13 21 -2 0 -10 -8 -17
-17z"/>
<path d="M5260 2426 c0 -2 8 -10 18 -17 15 -13 16 -12 3 4 -13 16 -21 21 -21
13z"/>
<path d="M5560 2415 c-7 -8 -16 -13 -19 -10 -4 2 -8 -3 -8 -11 0 -11 6 -9 24
8 13 12 23 23 23 25 0 7 -8 2 -20 -12z"/>
<path d="M2889 2403 c-13 -16 -12 -17 4 -4 16 13 21 21 13 21 -2 0 -10 -8 -17
-17z"/>
<path d="M2930 2417 c0 -2 6 -10 14 -16 11 -9 16 -9 22 1 4 7 4 10 -1 6 -4 -4
-14 -3 -22 3 -7 6 -13 9 -13 6z"/>
<path d="M3053 2405 c0 -8 4 -15 9 -15 4 0 8 4 8 9 0 6 -4 12 -8 15 -5 3 -9
-1 -9 -9z"/>
<path d="M3353 2405 c0 -8 4 -12 9 -9 5 3 6 10 3 15 -9 13 -12 11 -12 -6z"/>
<path d="M3653 2407 c0 -8 6 -14 14 -14 9 0 10 4 2 14 -6 7 -12 13 -14 13 -1
0 -2 -6 -2 -13z"/>
<path d="M3977 2413 c-10 -9 -9 -23 1 -23 5 0 9 7 9 15 0 17 -1 18 -10 8z"/>
<path d="M4095 2409 c-4 -6 -5 -12 -2 -15 2 -3 7 2 10 11 7 17 1 20 -8 4z"/>
<path d="M4143 2404 c9 -11 15 -23 12 -26 -3 -3 5 -13 17 -24 23 -19 23 -19 5
2 -9 11 -15 23 -12 26 3 3 -5 13 -17 24 -23 19 -23 19 -5 -2z"/>
<path d="M5219 2407 c8 -9 16 -15 19 -12 3 3 12 -1 21 -8 14 -11 14 -10 2 6
-8 9 -16 15 -19 12 -3 -3 -12 1 -21 8 -14 11 -14 10 -2 -6z"/>
<path d="M6689 2403 c-13 -16 -12 -17 4 -4 16 13 21 21 13 21 -2 0 -10 -8 -17
-17z"/>
<path d="M6743 2402 c10 -10 14 -22 10 -27 -5 -4 -2 -5 5 -1 11 6 10 12 -4 27
-9 10 -19 19 -22 19 -3 0 2 -8 11 -18z"/>
<path d="M6894 2400 c0 -13 4 -16 10 -10 7 7 7 13 0 20 -6 6 -10 3 -10 -10z"/>
<path d="M3256 2398 c3 -5 10 -6 15 -3 13 9 11 12 -6 12 -8 0 -12 -4 -9 -9z"/>
<path d="M3447 2399 c7 -7 15 -10 18 -7 3 3 -2 9 -12 12 -14 6 -15 5 -6 -5z"/>
<path d="M3579 2393 c-13 -16 -12 -17 4 -4 16 13 21 21 13 21 -2 0 -10 -8 -17
-17z"/>
<path d="M4286 2398 c4 -5 9 -7 12 -4 3 3 15 -2 26 -11 21 -18 21 -18 3 3 -16
20 -52 30 -41 12z"/>
<path d="M4360 2400 c-9 -6 -10 -10 -3 -10 6 0 15 5 18 10 8 12 4 12 -15 0z"/>
<path d="M4419 2393 c-13 -16 -12 -17 4 -4 9 7 17 15 17 17 0 8 -8 3 -21 -13z"/>
<path d="M4613 2393 c0 -10 4 -10 16 -1 9 7 18 13 20 15 2 1 -5 1 -16 0 -11 0
-20 -7 -20 -14z"/>
<path d="M4819 2393 c-13 -17 -13 -17 6 -3 11 8 22 16 24 17 2 2 0 3 -6 3 -6
0 -17 -8 -24 -17z"/>
<path d="M5071 2407 c2 -1 13 -9 24 -17 19 -14 19 -14 6 3 -7 9 -18 17 -24 17
-6 0 -8 -1 -6 -3z"/>
<path d="M5190 2403 c0 -6 8 -17 18 -24 16 -13 16 -13 2 6 -8 11 -16 22 -17
24 -2 2 -3 0 -3 -6z"/>
<path d="M5355 2401 c3 -2 -1 -11 -7 -20 -7 -9 -2 -7 11 4 13 11 25 18 26 15
2 -3 6 -3 9 1 3 3 -6 5 -19 5 -13 0 -22 -2 -20 -5z"/>
<path d="M4110 2396 c0 -2 8 -10 18 -17 15 -13 16 -12 3 4 -13 16 -21 21 -21
13z"/>
<path d="M4510 2396 c0 -2 8 -10 18 -17 15 -13 16 -12 3 4 -13 16 -21 21 -21
13z"/>
<path d="M5475 2390 c-3 -5 -3 -10 1 -10 4 0 -1 -10 -12 -22 -19 -23 -19 -23
2 -5 11 9 21 24 21 32 0 18 -3 19 -12 5z"/>
<path d="M6813 2385 c0 -8 4 -12 9 -9 5 3 6 10 3 15 -9 13 -12 11 -12 -6z"/>
<path d="M3115 2380 c3 -5 8 -10 11 -10 2 0 4 5 4 10 0 6 -5 10 -11 10 -5 0
-7 -4 -4 -10z"/>
<path d="M3435 2370 c10 -11 20 -20 23 -20 3 0 -3 9 -13 20 -10 11 -20 20 -23
20 -3 0 3 -9 13 -20z"/>
<path d="M3479 2373 c-13 -16 -12 -17 4 -4 16 13 21 21 13 21 -2 0 -10 -8 -17
-17z"/>
<path d="M3599 2373 c-13 -16 -12 -17 4 -4 16 13 21 21 13 21 -2 0 -10 -8 -17
-17z"/>
<path d="M3793 2367 c-1 -11 -1 -18 0 -16 2 2 8 11 15 20 9 12 9 16 -1 16 -7
0 -14 -9 -14 -20z"/>
<path d="M3955 2370 c10 -11 20 -20 23 -20 3 0 -3 9 -13 20 -10 11 -20 20 -23
20 -3 0 3 -9 13 -20z"/>
<path d="M4041 2376 c-7 -8 -21 -13 -32 -11 -10 2 -19 0 -19 -5 0 -15 40 -7
57 12 9 10 14 18 11 18 -3 0 -11 -6 -17 -14z"/>
<path d="M4439 2373 c-13 -16 -12 -17 4 -4 16 13 21 21 13 21 -2 0 -10 -8 -17
-17z"/>
<path d="M4640 2375 c-7 -8 -9 -15 -5 -15 4 0 1 -8 -6 -17 -13 -16 -12 -17 4
-4 9 8 15 16 12 19 -3 3 0 11 6 19 6 7 9 13 6 13 -2 0 -10 -7 -17 -15z"/>
<path d="M4675 2382 c3 -3 -1 -12 -7 -21 -8 -10 -4 -9 10 3 26 23 26 23 7 23
-8 0 -13 -3 -10 -5z"/>
<path d="M4757 2368 c19 -21 31 -25 14 -5 -6 8 -9 16 -6 19 3 2 -2 5 -10 5
-13 0 -13 -3 2 -19z"/>
<path d="M4913 2375 c24 -27 72 -27 94 -1 18 21 18 21 -2 5 -24 -19 -65 -19
-91 0 -18 14 -18 14 -1 -4z"/>
<path d="M3663 2362 c10 -10 15 -21 12 -24 -3 -2 2 -5 10 -5 12 0 10 6 -7 24
-25 27 -39 32 -15 5z"/>
<path d="M3703 2364 c9 -11 14 -23 11 -26 -3 -3 -1 -8 4 -12 18 -11 8 25 -12
41 -21 18 -21 18 -3 -3z"/>
<path d="M4093 2367 c0 -7 9 -14 20 -14 11 -1 18 -1 16 0 -2 2 -11 8 -20 15
-12 9 -16 9 -16 -1z"/>
<path d="M4209 2363 c-13 -16 -12 -17 4 -4 16 13 21 21 13 21 -2 0 -10 -8 -17
-17z"/>
<path d="M4493 2365 c0 -8 3 -13 5 -10 3 3 12 -1 21 -7 10 -8 9 -4 -3 10 -23
26 -23 26 -23 7z"/>
<path d="M4569 2363 c-13 -16 -12 -17 4 -4 9 7 17 15 17 17 0 8 -8 3 -21 -13z"/>
<path d="M5244 2362 c23 -26 23 -26 23 -7 0 8 -3 13 -5 10 -3 -3 -12 1 -21 7
-10 8 -9 4 3 -10z"/>
<path d="M5315 2370 c-4 -6 -10 -8 -14 -6 -4 3 -8 -1 -8 -9 0 -13 4 -12 19 2
18 16 22 23 14 23 -3 0 -8 -5 -11 -10z"/>
<path d="M5374 2369 c-3 -6 -2 -15 3 -20 5 -5 9 -1 9 11 0 23 -2 24 -12 9z"/>
<path d="M5413 2367 c0 -8 6 -14 14 -14 9 0 10 4 2 14 -6 7 -12 13 -14 13 -1
0 -2 -6 -2 -13z"/>
<path d="M3630 2363 c0 -6 8 -17 18 -24 16 -13 16 -13 2 6 -8 11 -16 22 -17
24 -2 2 -3 0 -3 -6z"/>
<path d="M3819 2353 c-12 -16 -12 -17 2 -6 9 7 19 10 22 6 4 -3 7 -1 7 5 0 17
-16 15 -31 -5z"/>
<path d="M4597 2352 c-15 -16 -15 -19 -2 -19 8 0 13 3 10 5 -3 3 0 11 6 19 17
20 5 16 -14 -5z"/>
<path d="M4699 2353 c-13 -16 -12 -17 4 -4 14 11 20 11 35 0 15 -13 16 -12 3
4 -7 9 -17 17 -21 17 -4 0 -14 -8 -21 -17z"/>
<path d="M4831 2367 c2 -2 11 -8 20 -15 12 -9 16 -9 16 1 0 7 -9 14 -20 14
-11 1 -18 1 -16 0z"/>
<path d="M5053 2353 c0 -10 4 -10 16 -1 9 7 18 13 20 15 2 1 -5 1 -16 0 -11 0
-20 -7 -20 -14z"/>
<path d="M5139 2353 c-13 -16 -12 -17 4 -4 16 13 21 21 13 21 -2 0 -10 -8 -17
-17z"/>
<path d="M3546 2338 c3 -5 10 -6 15 -3 13 9 11 12 -6 12 -8 0 -12 -4 -9 -9z"/>
<path d="M4225 2339 c-3 -4 2 -6 10 -5 21 3 28 13 10 13 -9 0 -18 -4 -20 -8z"/>
<path d="M4300 2346 c0 -2 8 -10 18 -17 15 -13 16 -12 3 4 -13 16 -21 21 -21
13z"/>
<path d="M4430 2336 c7 -7 13 -7 20 0 6 6 3 10 -10 10 -13 0 -16 -4 -10 -10z"/>
<path d="M4547 2339 c7 -7 15 -10 18 -7 3 3 -2 9 -12 12 -14 6 -15 5 -6 -5z"/>
<path d="M4820 2346 c0 -2 8 -10 18 -17 15 -13 16 -12 3 4 -13 16 -21 21 -21
13z"/>
<path d="M5079 2333 c-13 -16 -12 -17 4 -4 9 7 17 15 17 17 0 8 -8 3 -21 -13z"/>
<path d="M5229 2338 c11 -15 11 -21 0 -35 -12 -17 -12 -17 6 0 19 17 19 17 0
35 -18 16 -18 16 -6 0z"/>
<path d="M5320 2335 c-11 -13 -11 -18 0 -28 10 -9 11 -9 6 1 -4 7 -2 19 4 27
7 8 10 15 7 15 -2 0 -10 -7 -17 -15z"/>
<path d="M4099 2328 c15 -21 31 -23 31 -6 0 6 -3 8 -7 5 -3 -4 -13 -1 -22 6
-14 11 -14 10 -2 -5z"/>
<path d="M4646 2325 c-11 -8 -15 -15 -9 -15 6 0 16 7 23 15 16 19 11 19 -14 0z"/>
<path d="M4779 2327 c8 -9 16 -15 19 -12 3 3 12 -1 21 -8 14 -11 14 -10 2 6
-8 9 -16 15 -19 12 -3 -3 -12 1 -21 8 -14 11 -14 10 -2 -6z"/>
<path d="M4271 2327 c2 -1 13 -9 24 -17 19 -14 19 -14 6 3 -7 9 -18 17 -24 17
-6 0 -8 -1 -6 -3z"/>
<path d="M4856 2313 c-6 -14 -5 -15 5 -6 7 7 10 15 7 18 -3 3 -9 -2 -12 -12z"/>
<path d="M5050 2321 c0 -6 4 -13 10 -16 6 -3 7 1 4 9 -7 18 -14 21 -14 7z"/>
<path d="M5099 2313 c-13 -16 -12 -17 4 -4 9 7 17 15 17 17 0 8 -8 3 -21 -13z"/>
<path d="M5357 2323 c-4 -3 -7 -11 -7 -17 0 -6 5 -5 12 2 6 6 9 14 7 17 -3 3
-9 2 -12 -2z"/>
<path d="M3793 2305 c0 -8 4 -12 9 -9 5 3 6 10 3 15 -9 13 -12 11 -12 -6z"/>
<path d="M4669 2303 c-13 -16 -12 -17 4 -4 16 13 21 21 13 21 -2 0 -10 -8 -17
-17z"/>
<path d="M3825 2299 c-3 -4 2 -6 10 -5 21 3 28 13 10 13 -9 0 -18 -4 -20 -8z"/>
<path d="M3980 2306 c0 -2 8 -10 18 -17 15 -13 16 -12 3 4 -13 16 -21 21 -21
13z"/>
<path d="M4066 2298 c3 -4 9 -8 15 -8 5 0 9 4 9 8 0 5 -7 9 -15 9 -8 0 -12 -4
-9 -9z"/>
<path d="M4146 2302 c-2 -4 4 -8 14 -8 10 0 16 4 14 8 -3 4 -9 8 -14 8 -5 0
-11 -4 -14 -8z"/>
<path d="M4260 2306 c0 -2 8 -10 18 -17 15 -13 16 -12 3 4 -13 16 -21 21 -21
13z"/>
<path d="M4355 2302 c3 -3 -1 -12 -7 -21 -8 -10 -4 -9 10 3 26 23 26 23 7 23
-8 0 -13 -3 -10 -5z"/>
<path d="M4390 2306 c0 -2 7 -7 16 -10 8 -3 12 -2 9 4 -6 10 -25 14 -25 6z"/>
<path d="M4506 2302 c-2 -4 4 -8 14 -8 10 0 16 4 14 8 -3 4 -9 8 -14 8 -5 0
-11 -4 -14 -8z"/>
<path d="M4940 2306 c0 -2 8 -10 18 -17 15 -13 16 -12 3 4 -13 16 -21 21 -21
13z"/>
<path d="M5120 2295 c-7 -8 -9 -15 -5 -15 4 0 1 -8 -6 -17 -13 -16 -12 -17 4
-4 9 8 15 16 12 19 -3 3 0 11 6 19 6 7 9 13 6 13 -2 0 -10 -7 -17 -15z"/>
<path d="M5155 2302 c3 -3 -1 -12 -7 -21 -8 -10 -4 -9 10 3 26 23 26 23 7 23
-8 0 -13 -3 -10 -5z"/>
<path d="M5193 2305 c4 -5 0 -16 -9 -26 -12 -14 -13 -18 -2 -25 7 -4 10 -3 5
1 -4 5 0 16 9 26 12 14 13 18 2 25 -7 4 -10 3 -5 -1z"/>
<path d="M3935 2290 c-4 -6 -10 -8 -14 -6 -4 3 -8 -1 -8 -9 0 -13 4 -12 19 2
18 16 22 23 14 23 -3 0 -8 -5 -11 -10z"/>
<path d="M4104 2278 l-19 -23 23 19 c21 18 27 26 19 26 -2 0 -12 -10 -23 -22z"/>
<path d="M4204 2282 c23 -26 23 -26 23 -7 0 8 -3 13 -5 10 -3 -3 -12 1 -21 7
-10 8 -9 4 3 -10z"/>
<path d="M4444 2282 c23 -26 23 -26 23 -7 0 8 -3 13 -5 10 -3 -3 -12 1 -21 7
-10 8 -9 4 3 -10z"/>
<path d="M4895 2290 c-4 -6 -12 -7 -18 -4 -7 4 -9 4 -5 -1 4 -4 3 -13 -2 -20
-7 -8 -5 -12 5 -12 8 0 13 3 10 5 -3 3 2 14 12 24 9 10 13 18 10 18 -3 0 -9
-5 -12 -10z"/>
<path d="M5023 2284 c9 -11 15 -23 12 -26 -3 -2 2 -5 10 -5 10 0 12 4 5 12 -5
7 -6 16 -2 21 4 5 3 6 -2 2 -5 -4 -16 -2 -25 4 -12 10 -12 7 2 -8z"/>
<path d="M5249 2283 c-13 -16 -12 -17 4 -4 9 7 17 15 17 17 0 8 -8 3 -21 -13z"/>
<path d="M3956 2273 c-6 -14 -5 -15 5 -6 7 7 10 15 7 18 -3 3 -9 -2 -12 -12z"/>
<path d="M4033 2272 c-8 -14 -8 -19 1 -19 7 0 13 9 13 19 1 10 1 18 0 18 -1 0
-7 -8 -14 -18z"/>
<path d="M4379 2273 c-13 -16 -12 -17 4 -4 16 13 21 21 13 21 -2 0 -10 -8 -17
-17z"/>
<path d="M4754 2268 c-19 -23 -19 -23 2 -5 11 9 24 14 29 10 4 -5 5 -2 1 5 -9
16 -10 16 -32 -10z"/>
<path d="M4913 2272 c-8 -14 -8 -19 1 -19 7 0 13 9 13 19 1 10 1 18 0 18 -1 0
-7 -8 -14 -18z"/>
<path d="M4993 2273 c0 -11 7 -20 14 -20 10 0 10 4 1 16 -7 9 -13 18 -15 20
-1 2 -1 -5 0 -16z"/>
<path d="M5081 2276 c-9 -11 -9 -16 1 -22 7 -4 10 -4 6 1 -4 4 -3 14 3 22 6 7
9 13 6 13 -2 0 -10 -6 -16 -14z"/>
<path d="M4509 2263 c-13 -16 -12 -17 4 -4 9 7 17 15 17 17 0 8 -8 3 -21 -13z"/>
<path d="M4670 2276 c0 -2 8 -10 18 -17 15 -13 16 -12 3 4 -13 16 -21 21 -21
13z"/>
<path d="M4161 2256 c-9 -11 -9 -16 1 -22 7 -4 10 -4 6 1 -4 4 -3 14 3 22 6 7
9 13 6 13 -2 0 -10 -6 -16 -14z"/>
<path d="M4270 2256 c7 -7 13 -7 20 0 6 6 3 10 -10 10 -13 0 -16 -4 -10 -10z"/>
<path d="M4420 2266 c0 -2 8 -10 18 -17 15 -13 16 -12 3 4 -13 16 -21 21 -21
13z"/>
<path d="M4946 2262 c-2 -4 4 -8 14 -8 10 0 16 4 14 8 -3 4 -9 8 -14 8 -5 0
-11 -4 -14 -8z"/>
<path d="M4534 2249 c-3 -6 -2 -15 3 -20 5 -5 9 -1 9 11 0 23 -2 24 -12 9z"/>
<path d="M4650 2256 c0 -2 8 -10 18 -17 15 -13 16 -12 3 4 -13 16 -21 21 -21
13z"/>
<path d="M4779 2258 c-5 -18 -6 -38 -1 -34 7 8 12 36 6 36 -2 0 -4 -1 -5 -2z"/>
<path d="M4096 2238 c3 -5 10 -6 15 -3 13 9 11 12 -6 12 -8 0 -12 -4 -9 -9z"/>
<path d="M4224 2242 c4 -3 14 -7 22 -8 9 -1 13 0 10 4 -4 3 -14 7 -22 8 -9 1
-13 0 -10 -4z"/>
<path d="M4363 2238 c-9 -16 -16 -54 -7 -46 3 3 6 12 8 20 1 7 5 19 9 26 5 6
6 12 3 12 -3 0 -8 -6 -13 -12z"/>
<path d="M4590 2242 c0 -5 7 -9 15 -9 8 0 12 4 9 9 -3 4 -9 8 -15 8 -5 0 -9
-4 -9 -8z"/>
<path d="M4630 2236 c0 -2 8 -10 18 -17 15 -13 16 -12 3 4 -13 16 -21 21 -21
13z"/>
<path d="M4610 2216 c0 -2 8 -10 18 -17 15 -13 16 -12 3 4 -13 16 -21 21 -21
13z"/>
<path d="M4813 2205 c0 -8 4 -12 9 -9 5 3 6 10 3 15 -9 13 -12 11 -12 -6z"/>
<path d="M4853 2205 c0 -8 4 -12 9 -9 5 3 6 10 3 15 -9 13 -12 11 -12 -6z"/>
<path d="M4510 2205 c0 -7 30 -13 34 -7 3 4 -4 9 -15 9 -10 1 -19 0 -19 -2z"/>
</g>
</svg>
